<?xml version="1.0" encoding="UTF-8"?><svg id="Layer_1" xmlns="http://www.w3.org/2000/svg" viewBox="0 0 877 433.5"><defs><style>.cls-1{fill:#f0fdff;}.cls-2{fill:#e9f8e5;}.cls-3{fill:#fff;}.cls-4{fill:#fffde9;}.cls-5{fill:#fcf8ca;}.cls-6{fill:#e0f5f9;}.cls-7{fill:#74e2f3;}.cls-8{fill:#767777;}.cls-9{fill:none;stroke:#000;stroke-linecap:round;stroke-linejoin:round;stroke-width:1.5px;}</style></defs><rect class="cls-7" x="67.96" y="57.8" width="25.29" height="25.29" rx="9.86" ry="9.86" transform="translate(-18.9 30.96) rotate(-19.51)"/><rect class="cls-7" x="828.96" y="82.8" width="25.29" height="25.29" rx="9.86" ry="9.86" transform="translate(16.44 286.51) rotate(-19.51)"/><polygon class="cls-4" points="469.07 22.19 469.07 92.07 407.93 92.07 407.93 14.25 461.13 14.25 469.07 22.19"/><path d="m469.07,92.82h-61.14c-.41,0-.75-.34-.75-.75V14.25c0-.41.34-.75.75-.75h53.2c.2,0,.39.08.53.22l7.94,7.94c.14.14.22.33.22.53v69.88c0,.41-.34.75-.75.75Zm-60.39-1.5h59.64V22.5l-7.5-7.5h-52.14v76.32Z"/><path d="m469.07,22.94h-7.94c-.41,0-.75-.34-.75-.75v-7.94c0-.3.18-.58.46-.69.28-.12.6-.05.82.16l7.94,7.94c.21.21.28.54.16.82-.12.28-.39.46-.69.46Zm-7.19-1.5h5.38l-5.38-5.38v5.38Z"/><path d="m423.41,51.54v5.43h-1v-5.43h-.9v-.84h.9c0-.37,0-.73.01-1.1s.07-.69.19-.98c.29-.74.93-.96,1.67-.96.29,0,.58.02.86.12l-.32.75c-.17-.03-.33-.05-.5-.05-.34,0-.58.1-.71.31-.13.21-.2.46-.2.77v1.13h1.54v.84h-1.54Z"/><path d="m431.49,48.83l-3.21,8.14h-1.07l3.09-7.73h-4.46v-.84h5.65v.43Z"/><path d="m433.94,54.31l-.36,2.66h-.82l.36-2.66h-1.02v-.84h1.14l.22-1.58h-1.02v-.84h1.13l.36-2.65h.82l-.36,2.65h1.52l.36-2.65h.82l-.36,2.65h1.05v.84h-1.16l-.22,1.58h1.04v.84h-1.16l-.36,2.66h-.82l.36-2.66h-1.52Zm.12-.84h1.52l.22-1.58h-1.52l-.22,1.58Z"/><path d="m444.66,56.12v.85h-5.46v-8.57h5.24v.85h-4.2v2.91h3.43v.85h-3.43v3.11h4.41Z"/><path d="m448.64,53.29v2.42h-.88v-2.42h-2.24v-.84h2.24v-2.42h.88v2.42h2.24v.84h-2.24Z"/><path d="m453.31,53.53v3.44h-1v-6.27h1v1.13c.46-.85,1.1-1.21,2.06-1.24v.94c-1.44.07-2.06.61-2.06,2Z"/><path d="m101,94.1H10c-.41,0-.75-.34-.75-.75v-27.39c0-.41.34-.75.75-.75h91c.41,0,.75.34.75.75v27.39c0,.41-.34.75-.75.75Zm-90.25-1.5h89.5v-25.89H10.75v25.89Z"/><path d="m101,126.16H10c-.41,0-.75-.34-.75-.75v-27.39c0-.41.34-.75.75-.75h91c.41,0,.75.34.75.75v27.39c0,.41-.34.75-.75.75Zm-90.25-1.5h89.5v-25.89H10.75v25.89Z"/><path d="m101,158.21H10c-.41,0-.75-.34-.75-.75v-27.39c0-.41.34-.75.75-.75h91c.41,0,.75.34.75.75v27.39c0,.41-.34.75-.75.75Zm-90.25-1.5h89.5v-25.89H10.75v25.89Z"/><path d="m21.85,83.38c-2.05,0-3.71-1.67-3.71-3.71s1.67-3.71,3.71-3.71,3.71,1.67,3.71,3.71-1.67,3.71-3.71,3.71Zm0-5.92c-1.22,0-2.21.99-2.21,2.21s.99,2.21,2.21,2.21,2.21-.99,2.21-2.21-.99-2.21-2.21-2.21Z"/><path d="m21.85,115.42c-2.05,0-3.71-1.67-3.71-3.71s1.67-3.71,3.71-3.71,3.71,1.67,3.71,3.71-1.67,3.71-3.71,3.71Zm0-5.92c-1.22,0-2.21.99-2.21,2.21s.99,2.21,2.21,2.21,2.21-.99,2.21-2.21-.99-2.21-2.21-2.21Z"/><path d="m21.85,147.46c-2.05,0-3.71-1.67-3.71-3.71s1.67-3.71,3.71-3.71,3.71,1.67,3.71,3.71-1.67,3.71-3.71,3.71Zm0-5.92c-1.22,0-2.21.99-2.21,2.21s.99,2.21,2.21,2.21,2.21-.99,2.21-2.21-.99-2.21-2.21-2.21Z"/><path d="m60.84,80.42h-28.6c-.41,0-.75-.34-.75-.75s.34-.75.75-.75h28.6c.41,0,.75.34.75.75s-.34.75-.75.75Z"/><path d="m60.84,112.73h-28.6c-.41,0-.75-.34-.75-.75s.34-.75.75-.75h28.6c.41,0,.75.34.75.75s-.34.75-.75.75Z"/><path d="m60.84,144.5h-28.6c-.41,0-.75-.34-.75-.75s.34-.75.75-.75h28.6c.41,0,.75.34.75.75s-.34.75-.75.75Z"/><path d="m75.96,79.35h-2.15c-.41,0-.75-.34-.75-.75v-2.15c0-.41.34-.75.75-.75h2.15c.41,0,.75.34.75.75v2.15c0,.41-.34.75-.75.75Zm-1.4-1.5h.65v-.65h-.65v.65Z"/><path d="m81.35,79.35h-2.15c-.41,0-.75-.34-.75-.75v-2.15c0-.41.34-.75.75-.75h2.15c.41,0,.75.34.75.75v2.15c0,.41-.34.75-.75.75Zm-1.4-1.5h.65v-.65h-.65v.65Z"/><path d="m86.73,79.35h-2.15c-.41,0-.75-.34-.75-.75v-2.15c0-.41.34-.75.75-.75h2.15c.41,0,.75.34.75.75v2.15c0,.41-.34.75-.75.75Zm-1.4-1.5h.65v-.65h-.65v.65Z"/><path d="m92.12,79.35h-2.15c-.41,0-.75-.34-.75-.75v-2.15c0-.41.34-.75.75-.75h2.15c.41,0,.75.34.75.75v2.15c0,.41-.34.75-.75.75Zm-1.4-1.5h.65v-.65h-.65v.65Z"/><path d="m75.96,83.65h-2.15c-.41,0-.75-.34-.75-.75v-2.15c0-.41.34-.75.75-.75h2.15c.41,0,.75.34.75.75v2.15c0,.41-.34.75-.75.75Zm-1.4-1.5h.65v-.65h-.65v.65Z"/><path d="m81.35,83.65h-2.15c-.41,0-.75-.34-.75-.75v-2.15c0-.41.34-.75.75-.75h2.15c.41,0,.75.34.75.75v2.15c0,.41-.34.75-.75.75Zm-1.4-1.5h.65v-.65h-.65v.65Z"/><path d="m86.73,83.65h-2.15c-.41,0-.75-.34-.75-.75v-2.15c0-.41.34-.75.75-.75h2.15c.41,0,.75.34.75.75v2.15c0,.41-.34.75-.75.75Zm-1.4-1.5h.65v-.65h-.65v.65Z"/><path d="m92.12,83.65h-2.15c-.41,0-.75-.34-.75-.75v-2.15c0-.41.34-.75.75-.75h2.15c.41,0,.75.34.75.75v2.15c0,.41-.34.75-.75.75Zm-1.4-1.5h.65v-.65h-.65v.65Z"/><path d="m75.96,111.38h-2.15c-.41,0-.75-.34-.75-.75v-2.15c0-.41.34-.75.75-.75h2.15c.41,0,.75.34.75.75v2.15c0,.41-.34.75-.75.75Zm-1.4-1.5h.65v-.65h-.65v.65Z"/><path d="m81.35,111.38h-2.15c-.41,0-.75-.34-.75-.75v-2.15c0-.41.34-.75.75-.75h2.15c.41,0,.75.34.75.75v2.15c0,.41-.34.75-.75.75Zm-1.4-1.5h.65v-.65h-.65v.65Z"/><path d="m86.73,111.38h-2.15c-.41,0-.75-.34-.75-.75v-2.15c0-.41.34-.75.75-.75h2.15c.41,0,.75.34.75.75v2.15c0,.41-.34.75-.75.75Zm-1.4-1.5h.65v-.65h-.65v.65Z"/><path d="m92.12,111.38h-2.15c-.41,0-.75-.34-.75-.75v-2.15c0-.41.34-.75.75-.75h2.15c.41,0,.75.34.75.75v2.15c0,.41-.34.75-.75.75Zm-1.4-1.5h.65v-.65h-.65v.65Z"/><path d="m75.96,115.69h-2.15c-.41,0-.75-.34-.75-.75v-2.15c0-.41.34-.75.75-.75h2.15c.41,0,.75.34.75.75v2.15c0,.41-.34.75-.75.75Zm-1.4-1.5h.65v-.65h-.65v.65Z"/><path d="m81.35,115.69h-2.15c-.41,0-.75-.34-.75-.75v-2.15c0-.41.34-.75.75-.75h2.15c.41,0,.75.34.75.75v2.15c0,.41-.34.75-.75.75Zm-1.4-1.5h.65v-.65h-.65v.65Z"/><path d="m86.73,115.69h-2.15c-.41,0-.75-.34-.75-.75v-2.15c0-.41.34-.75.75-.75h2.15c.41,0,.75.34.75.75v2.15c0,.41-.34.75-.75.75Zm-1.4-1.5h.65v-.65h-.65v.65Z"/><path d="m92.12,115.69h-2.15c-.41,0-.75-.34-.75-.75v-2.15c0-.41.34-.75.75-.75h2.15c.41,0,.75.34.75.75v2.15c0,.41-.34.75-.75.75Zm-1.4-1.5h.65v-.65h-.65v.65Z"/><path d="m75.96,143.42h-2.15c-.41,0-.75-.34-.75-.75v-2.15c0-.41.34-.75.75-.75h2.15c.41,0,.75.34.75.75v2.15c0,.41-.34.75-.75.75Zm-1.4-1.5h.65v-.65h-.65v.65Z"/><path d="m81.35,143.42h-2.15c-.41,0-.75-.34-.75-.75v-2.15c0-.41.34-.75.75-.75h2.15c.41,0,.75.34.75.75v2.15c0,.41-.34.75-.75.75Zm-1.4-1.5h.65v-.65h-.65v.65Z"/><path d="m86.73,143.42h-2.15c-.41,0-.75-.34-.75-.75v-2.15c0-.41.34-.75.75-.75h2.15c.41,0,.75.34.75.75v2.15c0,.41-.34.75-.75.75Zm-1.4-1.5h.65v-.65h-.65v.65Z"/><path d="m92.12,143.42h-2.15c-.41,0-.75-.34-.75-.75v-2.15c0-.41.34-.75.75-.75h2.15c.41,0,.75.34.75.75v2.15c0,.41-.34.75-.75.75Zm-1.4-1.5h.65v-.65h-.65v.65Z"/><path d="m75.96,147.73h-2.15c-.41,0-.75-.34-.75-.75v-2.15c0-.41.34-.75.75-.75h2.15c.41,0,.75.34.75.75v2.15c0,.41-.34.75-.75.75Zm-1.4-1.5h.65v-.65h-.65v.65Z"/><path d="m81.35,147.73h-2.15c-.41,0-.75-.34-.75-.75v-2.15c0-.41.34-.75.75-.75h2.15c.41,0,.75.34.75.75v2.15c0,.41-.34.75-.75.75Zm-1.4-1.5h.65v-.65h-.65v.65Z"/><path d="m86.73,147.73h-2.15c-.41,0-.75-.34-.75-.75v-2.15c0-.41.34-.75.75-.75h2.15c.41,0,.75.34.75.75v2.15c0,.41-.34.75-.75.75Zm-1.4-1.5h.65v-.65h-.65v.65Z"/><path d="m92.12,147.73h-2.15c-.41,0-.75-.34-.75-.75v-2.15c0-.41.34-.75.75-.75h2.15c.41,0,.75.34.75.75v2.15c0,.41-.34.75-.75.75Zm-1.4-1.5h.65v-.65h-.65v.65Z"/><rect class="cls-3" x="21.58" y="93.35" width="4.73" height="4.63"/><path d="m26.3,98.74h-4.73c-.41,0-.75-.34-.75-.75v-4.63c0-.41.34-.75.75-.75h4.73c.41,0,.75.34.75.75v4.63c0,.41-.34.75-.75.75Zm-3.98-1.5h3.23v-3.13h-3.23v3.13Z"/><rect class="cls-3" x="85.65" y="93.35" width="4.73" height="4.63"/><path d="m90.38,98.74h-4.73c-.41,0-.75-.34-.75-.75v-4.63c0-.41.34-.75.75-.75h4.73c.41,0,.75.34.75.75v4.63c0,.41-.34.75-.75.75Zm-3.98-1.5h3.23v-3.13h-3.23v3.13Z"/><rect class="cls-3" x="21.58" y="125.46" width="4.73" height="4.63"/><path d="m26.3,130.84h-4.73c-.41,0-.75-.34-.75-.75v-4.63c0-.41.34-.75.75-.75h4.73c.41,0,.75.34.75.75v4.63c0,.41-.34.75-.75.75Zm-3.98-1.5h3.23v-3.13h-3.23v3.13Z"/><rect class="cls-3" x="85.65" y="125.46" width="4.73" height="4.63"/><path d="m90.38,130.84h-4.73c-.41,0-.75-.34-.75-.75v-4.63c0-.41.34-.75.75-.75h4.73c.41,0,.75.34.75.75v4.63c0,.41-.34.75-.75.75Zm-3.98-1.5h3.23v-3.13h-3.23v3.13Z"/><polygon class="cls-1" points="215.48 22.19 215.48 92.07 154.33 92.07 154.33 14.25 207.54 14.25 215.48 22.19"/><path d="m215.48,92.82h-61.14c-.41,0-.75-.34-.75-.75V14.25c0-.41.34-.75.75-.75h53.2c.2,0,.39.08.53.22l7.94,7.94c.14.14.22.33.22.53v69.88c0,.41-.34.75-.75.75Zm-60.39-1.5h59.64V22.5l-7.5-7.5h-52.14v76.32Z"/><path d="m215.48,22.94h-7.94c-.41,0-.75-.34-.75-.75v-7.94c0-.3.18-.58.46-.69.28-.12.6-.05.82.16l7.94,7.94c.21.21.28.54.16.82-.12.28-.39.46-.69.46Zm-7.19-1.5h5.38l-5.38-5.38v5.38Z"/><path d="m166.12,53.17v3.8h-1.04v-8.55h1.04v3.88h4.62v-3.88h1.04v8.55h-1.04v-3.8h-4.62Z"/><path d="m179.37,56.12v.85h-5.44v-8.55h5.23v.85h-4.19v2.91h3.42v.85h-3.42v3.1h4.4Z"/><path d="m186,56.12v.85h-5.07v-8.55h1.04v7.7h4.03Z"/><path d="m192.51,56.12v.85h-5.07v-8.55h1.04v7.7h4.03Z"/><path d="m197.59,57.08c-2.54,0-4.23-1.94-4.23-4.43s1.73-4.34,4.21-4.34,4.17,1.95,4.17,4.41-1.67,4.35-4.15,4.35Zm0-.86c2.11,0,3.07-1.67,3.07-3.6s-1.11-3.47-3.1-3.47c-2.15,0-3.13,1.6-3.13,3.59,0,1.85,1.21,3.48,3.16,3.48Z"/><path d="m204.11,57.03c-.44,0-.77-.33-.77-.77s.33-.77.77-.77.77.34.77.77-.34.77-.77.77Zm.56-8.61l-.17,6.14h-.77l-.17-6.14h1.1Z"/><path d="m243.14,113.54h-118.92c-.41,0-.75-.34-.75-.75s.34-.75.75-.75h118.92c.41,0,.75.34.75.75s-.34.75-.75.75Z"/><polygon points="238.17 118.92 237.15 117.82 242.57 112.79 237.15 107.75 238.17 106.65 244.77 112.79 238.17 118.92"/><path d="m867,94.1h-91c-.41,0-.75-.34-.75-.75v-27.39c0-.41.34-.75.75-.75h91c.41,0,.75.34.75.75v27.39c0,.41-.34.75-.75.75Zm-90.25-1.5h89.5v-25.89h-89.5v25.89Z"/><path d="m867,126.16h-91c-.41,0-.75-.34-.75-.75v-27.39c0-.41.34-.75.75-.75h91c.41,0,.75.34.75.75v27.39c0,.41-.34.75-.75.75Zm-90.25-1.5h89.5v-25.89h-89.5v25.89Z"/><path d="m867,158.21h-91c-.41,0-.75-.34-.75-.75v-27.39c0-.41.34-.75.75-.75h91c.41,0,.75.34.75.75v27.39c0,.41-.34.75-.75.75Zm-90.25-1.5h89.5v-25.89h-89.5v25.89Z"/><path d="m787.85,83.38c-2.05,0-3.71-1.67-3.71-3.71s1.67-3.71,3.71-3.71,3.71,1.67,3.71,3.71-1.67,3.71-3.71,3.71Zm0-5.92c-1.22,0-2.21.99-2.21,2.21s.99,2.21,2.21,2.21,2.21-.99,2.21-2.21-.99-2.21-2.21-2.21Z"/><path d="m787.85,115.42c-2.05,0-3.71-1.67-3.71-3.71s1.67-3.71,3.71-3.71,3.71,1.67,3.71,3.71-1.67,3.71-3.71,3.71Zm0-5.92c-1.22,0-2.21.99-2.21,2.21s.99,2.21,2.21,2.21,2.21-.99,2.21-2.21-.99-2.21-2.21-2.21Z"/><path d="m787.85,147.46c-2.05,0-3.71-1.67-3.71-3.71s1.67-3.71,3.71-3.71,3.71,1.67,3.71,3.71-1.67,3.71-3.71,3.71Zm0-5.92c-1.22,0-2.21.99-2.21,2.21s.99,2.21,2.21,2.21,2.21-.99,2.21-2.21-.99-2.21-2.21-2.21Z"/><path d="m826.84,80.42h-28.6c-.41,0-.75-.34-.75-.75s.34-.75.75-.75h28.6c.41,0,.75.34.75.75s-.34.75-.75.75Z"/><path d="m826.84,112.73h-28.6c-.41,0-.75-.34-.75-.75s.34-.75.75-.75h28.6c.41,0,.75.34.75.75s-.34.75-.75.75Z"/><path d="m826.84,144.5h-28.6c-.41,0-.75-.34-.75-.75s.34-.75.75-.75h28.6c.41,0,.75.34.75.75s-.34.75-.75.75Z"/><path d="m841.96,79.35h-2.15c-.41,0-.75-.34-.75-.75v-2.15c0-.41.34-.75.75-.75h2.15c.41,0,.75.34.75.75v2.15c0,.41-.34.75-.75.75Zm-1.4-1.5h.65v-.65h-.65v.65Z"/><path d="m847.35,79.35h-2.15c-.41,0-.75-.34-.75-.75v-2.15c0-.41.34-.75.75-.75h2.15c.41,0,.75.34.75.75v2.15c0,.41-.34.75-.75.75Zm-1.4-1.5h.65v-.65h-.65v.65Z"/><path d="m852.73,79.35h-2.15c-.41,0-.75-.34-.75-.75v-2.15c0-.41.34-.75.75-.75h2.15c.41,0,.75.34.75.75v2.15c0,.41-.34.75-.75.75Zm-1.4-1.5h.65v-.65h-.65v.65Z"/><path d="m858.12,79.35h-2.15c-.41,0-.75-.34-.75-.75v-2.15c0-.41.34-.75.75-.75h2.15c.41,0,.75.34.75.75v2.15c0,.41-.34.75-.75.75Zm-1.4-1.5h.65v-.65h-.65v.65Z"/><path d="m841.96,83.65h-2.15c-.41,0-.75-.34-.75-.75v-2.15c0-.41.34-.75.75-.75h2.15c.41,0,.75.34.75.75v2.15c0,.41-.34.75-.75.75Zm-1.4-1.5h.65v-.65h-.65v.65Z"/><path d="m847.35,83.65h-2.15c-.41,0-.75-.34-.75-.75v-2.15c0-.41.34-.75.75-.75h2.15c.41,0,.75.34.75.75v2.15c0,.41-.34.75-.75.75Zm-1.4-1.5h.65v-.65h-.65v.65Z"/><path d="m852.73,83.65h-2.15c-.41,0-.75-.34-.75-.75v-2.15c0-.41.34-.75.75-.75h2.15c.41,0,.75.34.75.75v2.15c0,.41-.34.75-.75.75Zm-1.4-1.5h.65v-.65h-.65v.65Z"/><path d="m858.12,83.65h-2.15c-.41,0-.75-.34-.75-.75v-2.15c0-.41.34-.75.75-.75h2.15c.41,0,.75.34.75.75v2.15c0,.41-.34.75-.75.75Zm-1.4-1.5h.65v-.65h-.65v.65Z"/><path d="m841.96,111.38h-2.15c-.41,0-.75-.34-.75-.75v-2.15c0-.41.34-.75.75-.75h2.15c.41,0,.75.34.75.75v2.15c0,.41-.34.75-.75.75Zm-1.4-1.5h.65v-.65h-.65v.65Z"/><path d="m847.35,111.38h-2.15c-.41,0-.75-.34-.75-.75v-2.15c0-.41.34-.75.75-.75h2.15c.41,0,.75.34.75.75v2.15c0,.41-.34.75-.75.75Zm-1.4-1.5h.65v-.65h-.65v.65Z"/><path d="m852.73,111.38h-2.15c-.41,0-.75-.34-.75-.75v-2.15c0-.41.34-.75.75-.75h2.15c.41,0,.75.34.75.75v2.15c0,.41-.34.75-.75.75Zm-1.4-1.5h.65v-.65h-.65v.65Z"/><path d="m858.12,111.38h-2.15c-.41,0-.75-.34-.75-.75v-2.15c0-.41.34-.75.75-.75h2.15c.41,0,.75.34.75.75v2.15c0,.41-.34.75-.75.75Zm-1.4-1.5h.65v-.65h-.65v.65Z"/><path d="m841.96,115.69h-2.15c-.41,0-.75-.34-.75-.75v-2.15c0-.41.34-.75.75-.75h2.15c.41,0,.75.34.75.75v2.15c0,.41-.34.75-.75.75Zm-1.4-1.5h.65v-.65h-.65v.65Z"/><path d="m847.35,115.69h-2.15c-.41,0-.75-.34-.75-.75v-2.15c0-.41.34-.75.75-.75h2.15c.41,0,.75.34.75.75v2.15c0,.41-.34.75-.75.75Zm-1.4-1.5h.65v-.65h-.65v.65Z"/><path d="m852.73,115.69h-2.15c-.41,0-.75-.34-.75-.75v-2.15c0-.41.34-.75.75-.75h2.15c.41,0,.75.34.75.75v2.15c0,.41-.34.75-.75.75Zm-1.4-1.5h.65v-.65h-.65v.65Z"/><path d="m858.12,115.69h-2.15c-.41,0-.75-.34-.75-.75v-2.15c0-.41.34-.75.75-.75h2.15c.41,0,.75.34.75.75v2.15c0,.41-.34.75-.75.75Zm-1.4-1.5h.65v-.65h-.65v.65Z"/><path d="m841.96,143.42h-2.15c-.41,0-.75-.34-.75-.75v-2.15c0-.41.34-.75.75-.75h2.15c.41,0,.75.34.75.75v2.15c0,.41-.34.75-.75.75Zm-1.4-1.5h.65v-.65h-.65v.65Z"/><path d="m847.35,143.42h-2.15c-.41,0-.75-.34-.75-.75v-2.15c0-.41.34-.75.75-.75h2.15c.41,0,.75.34.75.75v2.15c0,.41-.34.75-.75.75Zm-1.4-1.5h.65v-.65h-.65v.65Z"/><path d="m852.73,143.42h-2.15c-.41,0-.75-.34-.75-.75v-2.15c0-.41.34-.75.75-.75h2.15c.41,0,.75.34.75.75v2.15c0,.41-.34.75-.75.75Zm-1.4-1.5h.65v-.65h-.65v.65Z"/><path d="m858.12,143.42h-2.15c-.41,0-.75-.34-.75-.75v-2.15c0-.41.34-.75.75-.75h2.15c.41,0,.75.34.75.75v2.15c0,.41-.34.75-.75.75Zm-1.4-1.5h.65v-.65h-.65v.65Z"/><path d="m841.96,147.73h-2.15c-.41,0-.75-.34-.75-.75v-2.15c0-.41.34-.75.75-.75h2.15c.41,0,.75.34.75.75v2.15c0,.41-.34.75-.75.75Zm-1.4-1.5h.65v-.65h-.65v.65Z"/><path d="m847.35,147.73h-2.15c-.41,0-.75-.34-.75-.75v-2.15c0-.41.34-.75.75-.75h2.15c.41,0,.75.34.75.75v2.15c0,.41-.34.75-.75.75Zm-1.4-1.5h.65v-.65h-.65v.65Z"/><path d="m852.73,147.73h-2.15c-.41,0-.75-.34-.75-.75v-2.15c0-.41.34-.75.75-.75h2.15c.41,0,.75.34.75.75v2.15c0,.41-.34.75-.75.75Zm-1.4-1.5h.65v-.65h-.65v.65Z"/><path d="m858.12,147.73h-2.15c-.41,0-.75-.34-.75-.75v-2.15c0-.41.34-.75.75-.75h2.15c.41,0,.75.34.75.75v2.15c0,.41-.34.75-.75.75Zm-1.4-1.5h.65v-.65h-.65v.65Z"/><rect class="cls-3" x="787.58" y="93.35" width="4.73" height="4.63"/><path d="m792.3,98.74h-4.73c-.41,0-.75-.34-.75-.75v-4.63c0-.41.34-.75.75-.75h4.73c.41,0,.75.34.75.75v4.63c0,.41-.34.75-.75.75Zm-3.98-1.5h3.23v-3.13h-3.23v3.13Z"/><rect class="cls-3" x="851.65" y="93.35" width="4.73" height="4.63"/><path d="m856.38,98.74h-4.73c-.41,0-.75-.34-.75-.75v-4.63c0-.41.34-.75.75-.75h4.73c.41,0,.75.34.75.75v4.63c0,.41-.34.75-.75.75Zm-3.98-1.5h3.23v-3.13h-3.23v3.13Z"/><rect class="cls-3" x="787.58" y="125.46" width="4.73" height="4.63"/><path d="m792.3,130.84h-4.73c-.41,0-.75-.34-.75-.75v-4.63c0-.41.34-.75.75-.75h4.73c.41,0,.75.34.75.75v4.63c0,.41-.34.75-.75.75Zm-3.98-1.5h3.23v-3.13h-3.23v3.13Z"/><rect class="cls-3" x="851.65" y="125.46" width="4.73" height="4.63"/><path d="m856.38,130.84h-4.73c-.41,0-.75-.34-.75-.75v-4.63c0-.41.34-.75.75-.75h4.73c.41,0,.75.34.75.75v4.63c0,.41-.34.75-.75.75Zm-3.98-1.5h3.23v-3.13h-3.23v3.13Z"/><polygon class="cls-1" points="724.48 22.19 724.48 92.07 663.33 92.07 663.33 14.25 716.54 14.25 724.48 22.19"/><path d="m724.48,92.82h-61.14c-.41,0-.75-.34-.75-.75V14.25c0-.41.34-.75.75-.75h53.2c.2,0,.39.08.53.22l7.94,7.94c.14.14.22.33.22.53v69.88c0,.41-.34.75-.75.75Zm-60.39-1.5h59.64V22.5l-7.5-7.5h-52.14v76.32Z"/><path d="m724.48,22.94h-7.94c-.41,0-.75-.34-.75-.75v-7.94c0-.3.18-.58.46-.69.28-.12.6-.05.82.16l7.94,7.94c.21.21.28.54.16.82-.12.28-.39.46-.69.46Zm-7.19-1.5h5.38l-5.38-5.38v5.38Z"/><path d="m675.12,53.17v3.8h-1.04v-8.55h1.04v3.88h4.62v-3.88h1.04v8.55h-1.04v-3.8h-4.62Z"/><path d="m688.37,56.12v.85h-5.44v-8.55h5.23v.85h-4.19v2.91h3.42v.85h-3.42v3.1h4.4Z"/><path d="m695,56.12v.85h-5.07v-8.55h1.04v7.7h4.03Z"/><path d="m701.51,56.12v.85h-5.07v-8.55h1.04v7.7h4.03Z"/><path d="m706.59,57.08c-2.54,0-4.23-1.94-4.23-4.43s1.73-4.34,4.21-4.34,4.17,1.95,4.17,4.41-1.67,4.35-4.15,4.35Zm0-.86c2.11,0,3.07-1.67,3.07-3.6s-1.11-3.47-3.1-3.47c-2.15,0-3.13,1.6-3.13,3.59,0,1.85,1.21,3.48,3.16,3.48Z"/><path d="m713.11,57.03c-.44,0-.77-.33-.77-.77s.33-.77.77-.77.77.34.77.77-.34.77-.77.77Zm.56-8.61l-.17,6.14h-.77l-.17-6.14h1.1Z"/><path d="m756.14,113.54h-118.92c-.41,0-.75-.34-.75-.75s.34-.75.75-.75h118.92c.41,0,.75.34.75.75s-.34.75-.75.75Z"/><polygon points="751.17 118.92 750.15 117.82 755.57 112.79 750.15 107.75 751.17 106.65 757.77 112.79 751.17 118.92"/><path class="cls-1" d="m291.21,84.17c-.99-.29-2.17-.58-3.11-.32-8.06,2.24-16.09,4.61-24.58,7.07.24,3.07.38,6.47.79,9.85,1.92,15.75,7.86,29.37,20.72,39.46,2.95,2.32,4.96,2.54,8.03.11,16.23-12.87,21.1-30.39,21.46-49.34-8.11-2.38-15.7-4.63-23.31-6.82Z"/><path d="m289.15,142.81c-1.44,0-2.9-.66-4.58-1.98-12.01-9.42-18.88-22.5-21-39.96-.29-2.35-.44-4.68-.59-6.94-.07-1-.13-1.99-.2-2.94-.03-.35.2-.68.54-.78l5.97-1.73c6.41-1.87,12.47-3.63,18.62-5.34,1.12-.31,2.4,0,3.52.32h0c5.78,1.66,11.55,3.36,17.54,5.13l5.77,1.7c.32.1.54.4.54.73-.43,22.63-7.34,38.49-21.75,49.92-1.58,1.25-2.97,1.88-4.38,1.88Zm-24.83-51.33c.06.76.11,1.55.16,2.35.15,2.24.3,4.55.58,6.86,2.07,17.05,8.76,29.79,20.44,38.96,2.82,2.21,4.42,2.24,7.1.11,13.91-11.03,20.64-26.36,21.17-48.2l-5.22-1.54c-5.99-1.76-11.76-3.46-17.53-5.12h0c-.66-.19-1.89-.54-2.7-.32-6.15,1.71-12.2,3.47-18.61,5.34l-5.38,1.57Z"/><path d="m289.02,114.7c-3.12,0-5.67-2.54-5.67-5.66s2.54-5.67,5.67-5.67,5.67,2.54,5.67,5.67-2.54,5.66-5.67,5.66Zm0-9.83c-2.3,0-4.17,1.87-4.17,4.17s1.87,4.16,4.17,4.16,4.17-1.87,4.17-4.16-1.87-4.17-4.17-4.17Z"/><path d="m289.02,122.45c-.41,0-.75-.34-.75-.75v-7.75c0-.41.34-.75.75-.75s.75.34.75.75v7.75c0,.41-.34.75-.75.75Z"/><path class="cls-2" d="m590.61,84.17c-.99-.29-2.17-.58-3.11-.32-8.06,2.24-16.09,4.61-24.58,7.07.24,3.07.38,6.47.79,9.85,1.92,15.75,7.86,29.37,20.72,39.46,2.95,2.32,4.96,2.54,8.03.11,16.23-12.87,21.1-30.39,21.46-49.34-8.11-2.38-15.7-4.63-23.31-6.82Z"/><path d="m588.55,142.81c-1.44,0-2.9-.66-4.58-1.99-12.01-9.42-18.88-22.5-21-39.96-.29-2.35-.44-4.7-.59-6.96-.07-1-.13-1.97-.2-2.92-.03-.35.2-.68.54-.78l5.92-1.72c6.43-1.87,12.5-3.64,18.66-5.35,1.12-.31,2.41,0,3.52.32,5.77,1.66,11.53,3.36,17.52,5.12l5.79,1.7c.32.1.54.4.54.73-.43,22.63-7.34,38.49-21.75,49.92-1.58,1.25-2.97,1.88-4.38,1.88Zm-24.83-51.33c.05.76.11,1.54.16,2.33.15,2.25.3,4.57.58,6.88,2.07,17.05,8.76,29.79,20.44,38.96,2.82,2.21,4.42,2.24,7.1.11,13.91-11.03,20.64-26.36,21.17-48.2l-5.24-1.54c-5.98-1.76-11.74-3.46-17.51-5.12h0c-.66-.19-1.89-.54-2.7-.32-6.16,1.71-12.23,3.48-18.65,5.35l-5.34,1.55Z"/><path d="m588.42,114.7c-3.12,0-5.67-2.54-5.67-5.66s2.54-5.67,5.67-5.67,5.67,2.54,5.67,5.67-2.54,5.66-5.67,5.66Zm0-9.83c-2.3,0-4.17,1.87-4.17,4.17s1.87,4.16,4.17,4.16,4.17-1.87,4.17-4.16-1.87-4.17-4.17-4.17Z"/><path d="m588.42,122.45c-.41,0-.75-.34-.75-.75v-7.75c0-.41.34-.75.75-.75s.75.34.75.75v7.75c0,.41-.34.75-.75.75Z"/><path d="m540.77,112.46h-206.16c-.41,0-.75-.34-.75-.75s.34-.75.75-.75h206.16c.41,0,.75.34.75.75s-.34.75-.75.75Z"/><polygon points="535.8 117.85 534.77 116.75 540.19 111.71 534.77 106.68 535.8 105.58 542.39 111.71 535.8 117.85"/><path class="cls-9" d="m307.83,262.45l-28.92,34.91c-5.54-2.7-12.42-1.37-16.53,3.59-4.83,5.83-4.02,14.47,1.81,19.29,5.83,4.83,14.47,4.02,19.29-1.81,4.18-5.05,4.14-12.2.25-17.18l18.31-22.1,5.78,4.79,3.12-3.77-5.78-4.79,1.87-2.26,8.04,6.66,3.75-4.52-8.04-6.66,1.82-2.2c1.06-1.28.88-3.18-.4-4.24l-.13-.11c-1.28-1.06-3.18-.88-4.24.4Zm-29.63,51.61c-2.42,2.92-6.73,3.32-9.65.9-2.91-2.41-3.32-6.73-.9-9.65s6.74-3.31,9.65-.9c2.92,2.42,3.32,6.73.9,9.65Z"/><path class="cls-9" d="m565.46,261.93l-.13.11c-1.28,1.06-1.47,2.96-.41,4.24l1.82,2.21-8.06,6.64,3.73,4.53,8.06-6.64,1.87,2.27-5.79,4.77,3.11,3.78,5.79-4.77,18.24,22.15c-3.9,4.96-3.97,12.12.2,17.18,4.81,5.84,13.44,6.68,19.29,1.87,5.84-4.81,6.68-13.45,1.87-19.29-4.09-4.97-10.97-6.32-16.52-3.64l-28.82-34.99c-1.06-1.28-2.96-1.47-4.24-.41Zm34.65,42.46c2.92-2.4,7.24-1.99,9.64.93,2.41,2.92,1.98,7.24-.93,9.64-2.92,2.41-7.24,1.99-9.64-.93-2.41-2.92-1.99-7.24.93-9.64Z"/><path d="m289.02,263.79c-.41,0-.75-.34-.75-.75v-56.28c0-.41.34-.75.75-.75s.75.34.75.75v56.28c0,.41-.34.75-.75.75Z"/><polygon points="295.16 211.73 294.06 212.75 289.02 207.33 283.99 212.75 282.89 211.73 289.02 205.13 295.16 211.73"/><path d="m588.42,260.91c-.41,0-.75-.34-.75-.75v-56.28c0-.41.34-.75.75-.75s.75.34.75.75v56.28c0,.41-.34.75-.75.75Z"/><polygon points="594.56 208.85 593.46 209.87 588.42 204.45 583.39 209.87 582.29 208.85 588.42 202.25 594.56 208.85"/><rect class="cls-5" x="243.52" y="340.25" width="91" height="42" rx="1.76" ry="1.76"/><path d="m272.31,352.92v3.51h-1.8v-9.3h3.22c1.97,0,3.47.79,3.47,2.94,0,2.34-1.83,2.86-3.83,2.86-.36,0-.72-.01-1.07-.01Zm0-1.29h1.41c1.11,0,1.74-.46,1.74-1.61s-.68-1.52-1.74-1.52h-1.41v3.13Z"/><path d="m280.9,356.56c-1.61,0-2.42-1.04-2.42-2.57v-4.36h1.62v4.16c0,.92.42,1.5,1.39,1.5s1.6-.65,1.6-1.62v-4.03h1.61v6.8h-1.61v-1.07c-.42.83-1.29,1.2-2.19,1.2Z"/><path d="m290.47,356.56c-.91,0-1.87-.39-2.3-1.22v1.09h-1.62v-9.93h1.62v4.23c.46-.77,1.4-1.24,2.3-1.24,2.08,0,3.09,1.66,3.09,3.56s-1.07,3.51-3.09,3.51Zm-.42-1.27c1.44,0,1.83-1.08,1.83-2.31,0-1.14-.55-2.22-1.85-2.22-1.39,0-1.93,1.08-1.93,2.33s.59,2.21,1.94,2.21Z"/><path d="m296.62,346.17v10.26h-1.62v-9.56l1.62-.7Z"/><path d="m299.33,348.54c-.53,0-.96-.39-.96-.92s.42-.92.96-.92.95.39.95.92-.41.92-.95.92Zm.83,1.09v6.8h-1.62v-6.8h1.62Z"/><path d="m305.02,356.56c-2.15,0-3.43-1.46-3.43-3.55s1.43-3.52,3.47-3.52c1.38,0,2.56.57,3.06,1.91l-1.31.57c-.27-.75-.92-1.2-1.74-1.2-1.34,0-1.82,1.16-1.82,2.31s.51,2.24,1.86,2.24c.91,0,1.53-.52,1.81-1.37l1.24.55c-.46,1.42-1.71,2.05-3.14,2.05Z"/><path d="m280.21,369.14v4.29h-1.8v-9.3h1.8v4.16l3.63-4.17h1.92l-3.95,4.45,4.15,4.86h-2.11l-3.64-4.29Z"/><path d="m289.88,373.56c-2.15,0-3.48-1.44-3.48-3.55,0-1.99,1.37-3.52,3.41-3.52,2.35,0,3.26,1.61,3.26,3.74v.16h-5.02c.04,1.16.65,1.99,1.87,1.99.76,0,1.37-.3,1.72-.99l1.27.56c-.56,1.2-1.77,1.61-3.03,1.61Zm-1.81-4.24h3.38c-.05-1.03-.57-1.66-1.64-1.66-1.01,0-1.59.73-1.74,1.66Z"/><path d="m300.46,366.63l-3.73,9.13h-1.59l1.23-3.02-2.66-6.11h1.74l1.77,4.34,1.66-4.34h1.58Z"/><rect class="cls-5" x="542.92" y="335.25" width="91" height="42" rx="1.76" ry="1.76"/><path d="m569.37,349.21v3.51h-1.8v-9.3h3.22c1.97,0,3.47.79,3.47,2.94,0,2.34-1.83,2.86-3.83,2.86-.36,0-.72-.01-1.07-.01Zm0-1.29h1.41c1.11,0,1.74-.46,1.74-1.61s-.68-1.52-1.74-1.52h-1.41v3.13Z"/><path d="m577.23,349.21v3.51h-1.62v-6.8h1.62v1.27c.46-.92,1.18-1.37,2.22-1.38v1.51c-1.32.01-2.22.43-2.22,1.88Z"/><path d="m581.63,344.83c-.53,0-.96-.39-.96-.92s.42-.92.96-.92.95.39.95.92-.41.92-.95.92Zm.82,1.09v6.8h-1.62v-6.8h1.62Z"/><path d="m590.46,345.92l-2.45,6.8h-1.89l-2.46-6.8h1.73l1.75,5.15,1.74-5.15h1.59Z"/><path d="m593.37,352.85c-1.28,0-2.28-.66-2.28-2.02,0-2.2,2.79-2.16,4.36-2.16.01-.99-.15-1.69-1.32-1.69-.66,0-1.27.35-1.5.97l-1.27-.55c.47-1.2,1.71-1.64,2.92-1.64,1.62,0,2.78.77,2.78,2.5v4.45h-1.6v-.83c-.51.69-1.25.96-2.09.96Zm.42-1.16c.82,0,1.66-.44,1.66-1.35v-.66h-.81c-.74,0-1.95.09-1.95,1.09,0,.68.47.92,1.09.92Z"/><path d="m601.18,352.84c-1.33,0-2.09-.68-2.09-2.03v-3.69h-.91v-1.2h.91v-1.4l1.62-.7v2.11h1.49v1.2h-1.49v3.55c0,.53.22.86.79.86.25,0,.51-.04.76-.13v1.27c-.35.1-.72.17-1.08.17Z"/><path d="m606.69,352.85c-2.15,0-3.48-1.44-3.48-3.55,0-1.99,1.37-3.52,3.41-3.52,2.35,0,3.26,1.61,3.26,3.74v.16h-5.02c.04,1.16.65,1.99,1.87,1.99.76,0,1.37-.3,1.72-.99l1.27.56c-.56,1.2-1.78,1.61-3.03,1.61Zm-1.81-4.24h3.38c-.04-1.03-.56-1.66-1.64-1.66-1.01,0-1.59.73-1.73,1.66Z"/><path d="m579.61,365.43v4.29h-1.8v-9.3h1.8v4.16l3.63-4.17h1.92l-3.95,4.45,4.15,4.86h-2.11l-3.64-4.29Z"/><path d="m589.28,369.85c-2.15,0-3.48-1.44-3.48-3.55,0-1.99,1.37-3.52,3.41-3.52,2.35,0,3.26,1.61,3.26,3.74v.16h-5.02c.04,1.16.65,1.99,1.87,1.99.76,0,1.37-.3,1.72-.99l1.27.56c-.56,1.2-1.78,1.61-3.03,1.61Zm-1.81-4.24h3.38c-.04-1.03-.56-1.66-1.64-1.66-1.01,0-1.59.73-1.73,1.66Z"/><path d="m599.86,362.92l-3.73,9.13h-1.59l1.23-3.02-2.66-6.11h1.73l1.78,4.34,1.66-4.34h1.58Z"/><path class="cls-8" d="m820.05,411.88h-1.52c-.41,0-.75-.34-.75-.75s.34-.75.75-.75h.77v-1.74c0-.41.34-.75.75-.75s.75.34.75.75v2.49c0,.41-.34.75-.75.75Zm-5.53,0h-4.01c-.41,0-.75-.34-.75-.75s.34-.75.75-.75h4.01c.41,0,.75.34.75.75s-.34.75-.75.75Zm-8.01,0h-4c-.41,0-.75-.34-.75-.75s.34-.75.75-.75h4c.41,0,.75.34.75.75s-.34.75-.75.75Zm-8.01,0h-4c-.41,0-.75-.34-.75-.75s.34-.75.75-.75h4c.41,0,.75.34.75.75s-.34.75-.75.75Zm-8.01,0h-4c-.41,0-.75-.34-.75-.75s.34-.75.75-.75h4c.41,0,.75.34.75.75s-.34.75-.75.75Zm-8,0h-4c-.41,0-.75-.34-.75-.75s.34-.75.75-.75h4c.41,0,.75.34.75.75s-.34.75-.75.75Zm-8,0h-4c-.41,0-.75-.34-.75-.75s.34-.75.75-.75h4c.41,0,.75.34.75.75s-.34.75-.75.75Zm-8,0h-4c-.41,0-.75-.34-.75-.75s.34-.75.75-.75h4c.41,0,.75.34.75.75s-.34.75-.75.75Zm-8,0h-4c-.41,0-.75-.34-.75-.75s.34-.75.75-.75h4c.41,0,.75.34.75.75s-.34.75-.75.75Zm-8,0h-4c-.41,0-.75-.34-.75-.75s.34-.75.75-.75h4c.41,0,.75.34.75.75s-.34.75-.75.75Zm-8,0h-4c-.41,0-.75-.34-.75-.75s.34-.75.75-.75h4c.41,0,.75.34.75.75s-.34.75-.75.75Zm-8,0h-4c-.41,0-.75-.34-.75-.75s.34-.75.75-.75h4c.41,0,.75.34.75.75s-.34.75-.75.75Zm-8,0h-4c-.41,0-.75-.34-.75-.75s.34-.75.75-.75h4c.41,0,.75.34.75.75s-.34.75-.75.75Zm-8,0h-4c-.41,0-.75-.34-.75-.75s.34-.75.75-.75h4c.41,0,.75.34.75.75s-.34.75-.75.75Zm-8,0h-4c-.41,0-.75-.34-.75-.75s.34-.75.75-.75h4c.41,0,.75.34.75.75s-.34.75-.75.75Zm-8,0h-4c-.41,0-.75-.34-.75-.75s.34-.75.75-.75h4c.41,0,.75.34.75.75s-.34.75-.75.75Zm-8,0h-4c-.41,0-.75-.34-.75-.75s.34-.75.75-.75h4c.41,0,.75.34.75.75s-.34.75-.75.75Zm-8,0h-4c-.41,0-.75-.34-.75-.75s.34-.75.75-.75h4c.41,0,.75.34.75.75s-.34.75-.75.75Zm-8,0h-4c-.41,0-.75-.34-.75-.75s.34-.75.75-.75h4c.41,0,.75.34.75.75s-.34.75-.75.75Zm-8,0h-4c-.41,0-.75-.34-.75-.75s.34-.75.75-.75h4c.41,0,.75.34.75.75s-.34.75-.75.75Zm-8,0h-4c-.41,0-.75-.34-.75-.75s.34-.75.75-.75h4c.41,0,.75.34.75.75s-.34.75-.75.75Zm-8,0h-4c-.41,0-.75-.34-.75-.75s.34-.75.75-.75h4c.41,0,.75.34.75.75s-.34.75-.75.75Zm-8,0h-4c-.41,0-.75-.34-.75-.75s.34-.75.75-.75h4c.41,0,.75.34.75.75s-.34.75-.75.75Zm-8,0h-4c-.41,0-.75-.34-.75-.75s.34-.75.75-.75h4c.41,0,.75.34.75.75s-.34.75-.75.75Zm-8,0h-4c-.41,0-.75-.34-.75-.75s.34-.75.75-.75h4c.41,0,.75.34.75.75s-.34.75-.75.75Zm-8,0h-4c-.41,0-.75-.34-.75-.75s.34-.75.75-.75h4c.41,0,.75.34.75.75s-.34.75-.75.75Zm-8,0h-4c-.41,0-.75-.34-.75-.75s.34-.75.75-.75h4c.41,0,.75.34.75.75s-.34.75-.75.75Zm-8,0h-4c-.41,0-.75-.34-.75-.75s.34-.75.75-.75h4c.41,0,.75.34.75.75s-.34.75-.75.75Zm-8,0h-4c-.41,0-.75-.34-.75-.75s.34-.75.75-.75h4c.41,0,.75.34.75.75s-.34.75-.75.75Zm-8,0h-4c-.41,0-.75-.34-.75-.75s.34-.75.75-.75h4c.41,0,.75.34.75.75s-.34.75-.75.75Zm-8,0h-4c-.41,0-.75-.34-.75-.75s.34-.75.75-.75h4c.41,0,.75.34.75.75s-.34.75-.75.75Zm-8,0h-4c-.41,0-.75-.34-.75-.75s.34-.75.75-.75h4c.41,0,.75.34.75.75s-.34.75-.75.75Zm-8,0h-4c-.41,0-.75-.34-.75-.75s.34-.75.75-.75h4c.41,0,.75.34.75.75s-.34.75-.75.75Zm-8,0h-4c-.41,0-.75-.34-.75-.75s.34-.75.75-.75h4c.41,0,.75.34.75.75s-.34.75-.75.75Zm-8,0h-4c-.41,0-.75-.34-.75-.75s.34-.75.75-.75h4c.41,0,.75.34.75.75s-.34.75-.75.75Zm-8,0h-4c-.41,0-.75-.34-.75-.75s.34-.75.75-.75h4c.41,0,.75.34.75.75s-.34.75-.75.75Zm-8,0h-4c-.41,0-.75-.34-.75-.75s.34-.75.75-.75h4c.41,0,.75.34.75.75s-.34.75-.75.75Zm285.61-6.49c-.41,0-.75-.34-.75-.75v-4c0-.41.34-.75.75-.75s.75.34.75.75v4c0,.41-.34.75-.75.75Zm0-8c-.41,0-.75-.34-.75-.75v-4c0-.41.34-.75.75-.75s.75.34.75.75v4c0,.41-.34.75-.75.75Zm0-8c-.41,0-.75-.34-.75-.75v-4c0-.41.34-.75.75-.75s.75.34.75.75v4c0,.41-.34.75-.75.75Zm0-8c-.41,0-.75-.34-.75-.75v-4c0-.41.34-.75.75-.75s.75.34.75.75v4c0,.41-.34.75-.75.75Zm0-8c-.41,0-.75-.34-.75-.75v-4c0-.41.34-.75.75-.75s.75.34.75.75v4c0,.41-.34.75-.75.75Zm0-8c-.41,0-.75-.34-.75-.75v-4c0-.41.34-.75.75-.75s.75.34.75.75v4c0,.41-.34.75-.75.75Zm0-8c-.41,0-.75-.34-.75-.75v-4c0-.41.34-.75.75-.75s.75.34.75.75v4c0,.41-.34.75-.75.75Zm0-8c-.41,0-.75-.34-.75-.75v-4c0-.41.34-.75.75-.75s.75.34.75.75v4c0,.41-.34.75-.75.75Zm0-8c-.41,0-.75-.34-.75-.75v-4c0-.41.34-.75.75-.75s.75.34.75.75v4c0,.41-.34.75-.75.75Zm0-8c-.41,0-.75-.34-.75-.75v-4c0-.41.34-.75.75-.75s.75.34.75.75v4c0,.41-.34.75-.75.75Zm0-8c-.41,0-.75-.34-.75-.75v-4c0-.41.34-.75.75-.75s.75.34.75.75v4c0,.41-.34.75-.75.75Zm0-8c-.41,0-.75-.34-.75-.75v-4c0-.41.34-.75.75-.75s.75.34.75.75v4c0,.41-.34.75-.75.75Zm0-8c-.41,0-.75-.34-.75-.75v-4c0-.41.34-.75.75-.75s.75.34.75.75v4c0,.41-.34.75-.75.75Zm0-8c-.41,0-.75-.34-.75-.75v-4c0-.41.34-.75.75-.75s.75.34.75.75v4c0,.41-.34.75-.75.75Zm0-8c-.41,0-.75-.34-.75-.75v-4c0-.41.34-.75.75-.75s.75.34.75.75v4c0,.41-.34.75-.75.75Zm0-8c-.41,0-.75-.34-.75-.75v-4c0-.41.34-.75.75-.75s.75.34.75.75v4c0,.41-.34.75-.75.75Zm0-8c-.41,0-.75-.34-.75-.75v-4c0-.41.34-.75.75-.75s.75.34.75.75v4c0,.41-.34.75-.75.75Zm0-8c-.41,0-.75-.34-.75-.75v-4c0-.41.34-.75.75-.75s.75.34.75.75v4c0,.41-.34.75-.75.75Zm0-8c-.41,0-.75-.34-.75-.75v-4c0-.41.34-.75.75-.75s.75.34.75.75v4c0,.41-.34.75-.75.75Zm0-8c-.41,0-.75-.34-.75-.75v-4c0-.41.34-.75.75-.75s.75.34.75.75v4c0,.41-.34.75-.75.75Zm0-8c-.41,0-.75-.34-.75-.75v-4c0-.41.34-.75.75-.75s.75.34.75.75v4c0,.41-.34.75-.75.75Zm0-8c-.41,0-.75-.34-.75-.75v-4c0-.41.34-.75.75-.75s.75.34.75.75v4c0,.41-.34.75-.75.75Zm0-8c-.41,0-.75-.34-.75-.75v-4c0-.41.34-.75.75-.75s.75.34.75.75v4c0,.41-.34.75-.75.75Zm0-8c-.41,0-.75-.34-.75-.75v-4c0-.41.34-.75.75-.75s.75.34.75.75v4c0,.41-.34.75-.75.75Zm0-8c-.41,0-.75-.34-.75-.75v-4c0-.41.34-.75.75-.75s.75.34.75.75v4c0,.41-.34.75-.75.75Z"/><polygon class="cls-8" points="813.92 213.61 815.02 214.63 820.05 209.21 825.09 214.63 826.19 213.61 820.05 207.01 813.92 213.61"/><path d="m373.6,412.09v4.08h-1.22v-10.02h3.12c1.94,0,3.5.85,3.5,2.98,0,.67-.13,1.21-.39,1.6-.86,1.29-2.58,1.37-3.99,1.37-.17,0-.35,0-.53,0-.17,0-.34,0-.51,0Zm0-.97h1.99c1.4,0,2.2-.59,2.2-2.04s-.85-1.95-2.2-1.95h-1.99v3.99Z"/><path d="m383.39,416.29c-1.79,0-2.76-1.05-2.76-2.81v-4.64h1.16v4.58c0,1.23.67,1.86,1.9,1.86s1.95-.8,1.95-2v-4.44h1.16v7.33h-1.16v-1.16c-.43.9-1.29,1.29-2.25,1.29Z"/><path d="m392.89,416.29c-1.03,0-2.04-.43-2.59-1.33v1.21h-1.16v-10.83h1.16v4.73c.48-.82,1.65-1.36,2.59-1.36,2.21,0,3.36,1.72,3.36,3.8s-1.21,3.78-3.36,3.78Zm-.11-.97c1.75,0,2.27-1.34,2.27-2.87,0-1.41-.71-2.77-2.28-2.77-1.73,0-2.51,1.32-2.51,2.89s.9,2.76,2.52,2.76Z"/><path d="m399.25,405.07v11.09h-1.18v-10.58l1.18-.52Z"/><path d="m402.2,407.3c-.43,0-.77-.34-.77-.77s.34-.77.77-.77.77.34.77.77-.34.77-.77.77Zm.6,1.54v7.33h-1.16v-7.33h1.16Z"/><path d="m408.14,416.29c-2.26,0-3.52-1.68-3.52-3.82s1.44-3.75,3.59-3.75c1.49,0,2.56.68,3.21,2.03l-1.06.46c-.32-.9-1.21-1.53-2.17-1.53-1.62,0-2.35,1.46-2.35,2.9s.77,2.74,2.4,2.74c1.08,0,1.91-.72,2.23-1.72l1.01.44c-.56,1.46-1.76,2.25-3.32,2.25Z"/><path d="m417.2,411.28v4.89h-1.22v-10.02h1.22v4.82l4.36-4.83h1.36l-4.45,4.87,4.68,5.16h-1.47l-4.47-4.89Z"/><path d="m427.29,416.29c-2.23,0-3.54-1.69-3.54-3.82s1.3-3.75,3.43-3.75c2.42,0,3.29,1.77,3.29,3.94v.08h-5.52c0,1.47.78,2.59,2.35,2.59.86,0,1.59-.53,1.97-1.29l1.06.46c-.67,1.2-1.69,1.79-3.05,1.79Zm-2.3-4.5h4.29c-.06-1.31-.76-2.12-2.1-2.12-1.25,0-2.05.95-2.19,2.12Z"/><path d="m438.02,408.84l-4.05,9.88h-1.18l1.39-3.31-2.83-6.57h1.25l2.2,5.25,2.03-5.25h1.19Z"/><path d="m448.69,415.17v.99h-6.37v-10.02h6.12v.99h-4.9v3.4h4.01v.99h-4.01v3.63h5.15Z"/><path d="m452.94,413.21l-2.02,2.96h-1.25l2.62-3.77-2.45-3.56h1.36l1.79,2.66,1.78-2.66h1.26l-2.42,3.47,2.68,3.85h-1.37l-1.97-2.96Z"/><path d="m460.63,416.29c-2.26,0-3.52-1.68-3.52-3.82s1.44-3.75,3.59-3.75c1.49,0,2.56.68,3.21,2.03l-1.06.46c-.32-.9-1.21-1.53-2.17-1.53-1.62,0-2.35,1.46-2.35,2.9s.77,2.74,2.4,2.74c1.08,0,1.91-.72,2.23-1.72l1.01.44c-.56,1.46-1.76,2.25-3.32,2.25Z"/><path d="m466.85,411.73v4.44h-1.16v-10.83h1.16v4.66c.44-.91,1.34-1.29,2.31-1.29,1.83,0,2.76,1.28,2.76,3.03v4.43h-1.16v-4.51c0-1.25-.65-1.93-1.9-1.93s-2,.77-2,2Z"/><path d="m476.02,416.29c-1.33,0-2.44-.72-2.44-2.16,0-2.33,3.08-2.27,4.72-2.27,0-1.29-.25-2.19-1.72-2.19-.82,0-1.57.5-1.83,1.28l-1-.44c.54-1.21,1.6-1.81,2.93-1.81,1.6,0,2.79.98,2.79,2.65v4.8h-1.16v-.93c-.54.71-1.41,1.05-2.28,1.05Zm.11-.92c1.03,0,2.17-.61,2.17-1.77v-.91h-1.01c-.97,0-2.55.17-2.55,1.44,0,.9.55,1.23,1.39,1.23Z"/><path d="m482.89,411.73v4.44h-1.16v-7.33h1.16v1.16c.46-.91,1.38-1.29,2.35-1.29,1.87,0,2.72,1.28,2.72,3.03v4.43h-1.16v-4.51c0-1.23-.61-1.93-1.86-1.93s-2.05.76-2.05,2Z"/><path d="m493.15,418.84c-1.39,0-2.69-.45-3.32-1.78l.92-.41c.41.9,1.45,1.21,2.38,1.21,1.42,0,2.49-.74,2.49-2.26v-1.06c-.56.85-1.6,1.39-2.62,1.39-2.05,0-3.33-1.62-3.33-3.57s1.39-3.64,3.42-3.64c1.01,0,2,.43,2.54,1.3v-1.18h1.16v6.84c0,2.16-1.71,3.17-3.64,3.17Zm.06-3.88c1.58,0,2.47-1.2,2.47-2.69s-.86-2.59-2.4-2.59-2.4,1.26-2.4,2.73c0,1.34.94,2.55,2.33,2.55Z"/><path d="m502.13,416.29c-2.23,0-3.54-1.69-3.54-3.82s1.3-3.75,3.43-3.75c2.42,0,3.29,1.77,3.29,3.94v.08h-5.52c0,1.47.78,2.59,2.35,2.59.86,0,1.59-.53,1.97-1.29l1.06.46c-.67,1.2-1.69,1.79-3.05,1.79Zm-2.3-4.5h4.29c-.06-1.31-.76-2.12-2.1-2.12-1.25,0-2.05.95-2.19,2.12Z"/><rect class="cls-6" x="209.52" y="159.25" width="159" height="28" rx="1.9" ry="1.9"/><path d="m262.1,176.81v1.4h-6.38v-9.3h6.16v1.4h-4.36v2.5h3.54v1.33h-3.54v2.67h4.58Z"/><path d="m265.14,174.23v3.99h-1.62v-6.8h1.62v1.08c.43-.84,1.35-1.22,2.26-1.22,1.67,0,2.39,1.16,2.39,2.69v4.25h-1.64v-4.1c0-.95-.43-1.51-1.42-1.51s-1.59.64-1.59,1.61Z"/><path d="m274.54,178.35c-2.15,0-3.43-1.46-3.43-3.55s1.43-3.52,3.47-3.52c1.38,0,2.56.57,3.06,1.91l-1.31.57c-.27-.75-.92-1.2-1.74-1.2-1.34,0-1.82,1.16-1.82,2.31s.51,2.24,1.86,2.24c.91,0,1.53-.52,1.81-1.37l1.24.55c-.46,1.42-1.71,2.05-3.14,2.05Z"/><path d="m280.65,174.71v3.51h-1.62v-6.8h1.62v1.27c.46-.92,1.18-1.37,2.22-1.38v1.51c-1.32.01-2.22.43-2.22,1.88Z"/><path d="m290.3,171.42l-3.73,9.13h-1.59l1.23-3.02-2.66-6.11h1.74l1.77,4.34,1.66-4.34h1.58Z"/><path d="m293.07,177.15v3.39h-1.62v-9.13h1.62v1.09c.46-.78,1.42-1.24,2.31-1.24,2.08,0,3.07,1.66,3.07,3.56s-1.05,3.51-3.07,3.51c-.91,0-1.86-.38-2.31-1.2Zm1.87-.08c1.44,0,1.85-1.08,1.85-2.31,0-1.16-.57-2.22-1.85-2.22-1.4,0-1.93,1.09-1.93,2.33s.58,2.21,1.93,2.21Z"/><path d="m302.21,178.34c-1.33,0-2.09-.68-2.09-2.03v-3.69h-.91v-1.2h.91v-1.4l1.62-.7v2.11h1.49v1.2h-1.49v3.55c0,.53.22.86.79.86.25,0,.51-.04.76-.13v1.27c-.34.1-.72.17-1.08.17Z"/><path d="m305.52,170.33c-.53,0-.96-.39-.96-.92s.42-.92.96-.92.95.39.95.92-.41.92-.95.92Zm.83,1.09v6.8h-1.62v-6.8h1.62Z"/><path d="m311.3,178.35c-2.12,0-3.73-1.47-3.73-3.56s1.7-3.51,3.75-3.51,3.68,1.48,3.68,3.58-1.63,3.5-3.7,3.5Zm.02-1.25c1.39,0,1.94-1.12,1.94-2.33s-.62-2.25-1.94-2.25c-1.41,0-1.94,1.12-1.94,2.34s.62,2.24,1.94,2.24Z"/><path d="m317.87,174.23v3.99h-1.62v-6.8h1.62v1.08c.43-.84,1.35-1.22,2.26-1.22,1.67,0,2.39,1.16,2.39,2.69v4.25h-1.64v-4.1c0-.95-.43-1.51-1.42-1.51s-1.59.64-1.59,1.61Z"/><rect class="cls-6" x="8" y="166.5" width="93" height="28" rx="1.45" ry="1.45"/><path d="m36.14,185.6c-1.68,0-3.18-.6-3.69-2.33l1.48-.64c.33,1.08,1.08,1.64,2.22,1.64.85,0,1.75-.46,1.75-1.4,0-2.38-5.22-.3-5.22-4.13,0-1.78,1.65-2.69,3.26-2.69,1.49,0,2.85.61,3.43,2.05l-1.38.6c-.4-.82-1.13-1.31-2.05-1.31-.77,0-1.59.31-1.59,1.21,0,2.34,5.25.26,5.25,4.12,0,1.87-1.74,2.89-3.46,2.89Z"/><path d="m44.17,185.6c-2.15,0-3.48-1.44-3.48-3.55,0-1.99,1.37-3.52,3.41-3.52,2.35,0,3.26,1.61,3.26,3.74v.16h-5.02c.04,1.16.65,1.99,1.87,1.99.76,0,1.37-.3,1.72-.99l1.27.56c-.56,1.2-1.77,1.61-3.03,1.61Zm-1.81-4.24h3.38c-.05-1.03-.57-1.66-1.64-1.66-1.01,0-1.59.73-1.74,1.66Z"/><path d="m50.35,181.47v3.99h-1.62v-6.8h1.62v1.08c.43-.85,1.35-1.22,2.26-1.22,1.67,0,2.39,1.16,2.39,2.69v4.25h-1.64v-4.09c0-.95-.43-1.51-1.42-1.51s-1.59.64-1.59,1.61Z"/><path d="m59.37,185.6c-2.08,0-3.04-1.62-3.04-3.52s1.08-3.55,3.11-3.55c.92,0,1.79.36,2.28,1.18v-4.17h1.61v9.93h-1.61v-1.14c-.44.78-1.46,1.27-2.35,1.27Zm.43-1.27c1.4,0,1.96-1.08,1.96-2.33s-.54-2.21-1.89-2.21c-1.44,0-1.89,1.12-1.89,2.35,0,1.14.54,2.18,1.82,2.18Z"/><path d="m68.21,185.6c-2.15,0-3.48-1.44-3.48-3.55,0-1.99,1.37-3.52,3.41-3.52,2.35,0,3.26,1.61,3.26,3.74v.16h-5.02c.04,1.16.65,1.99,1.87,1.99.76,0,1.37-.3,1.72-.99l1.27.56c-.56,1.2-1.77,1.61-3.03,1.61Zm-1.81-4.24h3.38c-.05-1.03-.57-1.66-1.64-1.66-1.01,0-1.59.73-1.74,1.66Z"/><path d="m74.39,181.96v3.51h-1.62v-6.8h1.62v1.27c.46-.92,1.18-1.37,2.22-1.38v1.51c-1.32.01-2.22.43-2.22,1.89Z"/><rect class="cls-6" x="774" y="166.5" width="93" height="28" rx="1.45" ry="1.45"/><path d="m793.5,181.72v3.74h-1.8v-9.29h3.36c1.86,0,3.48.69,3.48,2.79,0,1.33-.78,2.17-2.05,2.5l2.61,4h-1.93l-2.41-3.74h-1.25Zm0-1.25h1.51c1.03,0,1.79-.39,1.79-1.52s-.81-1.4-1.79-1.4h-1.51v2.92Z"/><path d="m803.28,185.6c-2.15,0-3.48-1.44-3.48-3.55,0-1.99,1.37-3.52,3.41-3.52,2.35,0,3.26,1.61,3.26,3.74v.16h-5.02c.04,1.16.65,1.99,1.87,1.99.76,0,1.37-.3,1.72-.99l1.27.56c-.56,1.2-1.77,1.61-3.03,1.61Zm-1.81-4.24h3.38c-.05-1.03-.57-1.66-1.64-1.66-1.01,0-1.59.73-1.74,1.66Z"/><path d="m810.82,185.6c-2.15,0-3.43-1.46-3.43-3.55s1.43-3.52,3.47-3.52c1.38,0,2.56.57,3.06,1.91l-1.31.57c-.27-.75-.92-1.2-1.74-1.2-1.34,0-1.82,1.16-1.82,2.31s.51,2.24,1.86,2.24c.91,0,1.53-.52,1.81-1.36l1.24.55c-.46,1.42-1.71,2.05-3.14,2.05Z"/><path d="m816.14,177.57c-.53,0-.96-.39-.96-.92s.42-.92.96-.92.95.39.95.92-.41.92-.95.92Zm.83,1.09v6.8h-1.62v-6.8h1.62Z"/><path d="m820.48,184.4v3.39h-1.62v-9.13h1.62v1.09c.46-.78,1.42-1.24,2.31-1.24,2.08,0,3.07,1.66,3.07,3.56s-1.05,3.51-3.07,3.51c-.91,0-1.86-.38-2.31-1.2Zm1.87-.08c1.44,0,1.85-1.08,1.85-2.31,0-1.16-.57-2.22-1.85-2.22-1.4,0-1.93,1.09-1.93,2.33s.58,2.21,1.93,2.21Z"/><path d="m828.1,177.57c-.53,0-.96-.39-.96-.92s.42-.92.96-.92.95.39.95.92-.41.92-.95.92Zm.83,1.09v6.8h-1.62v-6.8h1.62Z"/><path d="m833.84,185.6c-2.15,0-3.48-1.44-3.48-3.55,0-1.99,1.37-3.52,3.41-3.52,2.35,0,3.26,1.61,3.26,3.74v.16h-5.02c.04,1.16.65,1.99,1.87,1.99.76,0,1.37-.3,1.72-.99l1.27.56c-.56,1.2-1.77,1.61-3.03,1.61Zm-1.81-4.24h3.38c-.05-1.03-.57-1.66-1.64-1.66-1.01,0-1.59.73-1.74,1.66Z"/><path d="m840.02,181.47v3.99h-1.62v-6.8h1.62v1.08c.43-.85,1.35-1.22,2.26-1.22,1.67,0,2.39,1.16,2.39,2.69v4.25h-1.64v-4.09c0-.95-.43-1.51-1.42-1.51s-1.59.64-1.59,1.61Z"/><path d="m848.79,185.58c-1.33,0-2.09-.68-2.09-2.03v-3.69h-.91v-1.2h.91v-1.4l1.62-.7v2.11h1.49v1.2h-1.49v3.55c0,.53.22.86.79.86.25,0,.51-.04.76-.13v1.27c-.34.1-.72.17-1.08.17Z"/><rect class="cls-2" x="507" y="159.25" width="159" height="28" rx="1.9" ry="1.9"/><path d="m555.7,178.22h-3.11v-9.3h3.13c3.04,0,4.86,1.59,4.86,4.67s-1.91,4.63-4.88,4.63Zm-1.31-1.4h1.27c2.18,0,3.05-1.27,3.05-3.32s-.94-3.18-3.07-3.18h-1.24v6.5Z"/><path d="m565.1,178.35c-2.15,0-3.48-1.44-3.48-3.55,0-1.99,1.37-3.52,3.41-3.52,2.35,0,3.26,1.61,3.26,3.74v.16h-5.02c.04,1.16.65,1.99,1.87,1.99.76,0,1.37-.3,1.72-.99l1.27.56c-.56,1.2-1.77,1.61-3.03,1.61Zm-1.81-4.24h3.38c-.05-1.03-.57-1.66-1.64-1.66-1.01,0-1.59.73-1.74,1.66Z"/><path d="m572.64,178.35c-2.15,0-3.43-1.46-3.43-3.55s1.43-3.52,3.47-3.52c1.38,0,2.56.57,3.06,1.91l-1.31.57c-.27-.75-.92-1.2-1.74-1.2-1.34,0-1.82,1.16-1.82,2.31s.51,2.24,1.86,2.24c.91,0,1.53-.52,1.81-1.37l1.24.55c-.46,1.42-1.71,2.05-3.14,2.05Z"/><path d="m578.75,174.71v3.51h-1.62v-6.8h1.62v1.27c.46-.92,1.18-1.37,2.22-1.38v1.51c-1.32.01-2.22.43-2.22,1.88Z"/><path d="m588.4,171.42l-3.73,9.13h-1.59l1.23-3.02-2.66-6.11h1.74l1.77,4.34,1.66-4.34h1.58Z"/><path d="m591.17,177.15v3.39h-1.62v-9.13h1.62v1.09c.46-.78,1.42-1.24,2.31-1.24,2.08,0,3.07,1.66,3.07,3.56s-1.05,3.51-3.07,3.51c-.91,0-1.86-.38-2.31-1.2Zm1.87-.08c1.44,0,1.85-1.08,1.85-2.31,0-1.16-.57-2.22-1.85-2.22-1.4,0-1.93,1.09-1.93,2.33s.58,2.21,1.93,2.21Z"/><path d="m600.31,178.34c-1.33,0-2.09-.68-2.09-2.03v-3.69h-.91v-1.2h.91v-1.4l1.62-.7v2.11h1.49v1.2h-1.49v3.55c0,.53.22.86.79.86.25,0,.51-.04.76-.13v1.27c-.34.1-.72.17-1.08.17Z"/><path d="m603.62,170.33c-.53,0-.96-.39-.96-.92s.42-.92.96-.92.95.39.95.92-.41.92-.95.92Zm.83,1.09v6.8h-1.62v-6.8h1.62Z"/><path d="m609.4,178.35c-2.12,0-3.73-1.47-3.73-3.56s1.7-3.51,3.75-3.51,3.68,1.48,3.68,3.58-1.63,3.5-3.7,3.5Zm.02-1.25c1.39,0,1.94-1.12,1.94-2.33s-.62-2.25-1.94-2.25c-1.41,0-1.94,1.12-1.94,2.34s.62,2.24,1.94,2.24Z"/><path d="m615.97,174.23v3.99h-1.62v-6.8h1.62v1.08c.43-.84,1.35-1.22,2.26-1.22,1.67,0,2.39,1.16,2.39,2.69v4.25h-1.64v-4.1c0-.95-.43-1.51-1.42-1.51s-1.59.64-1.59,1.61Z"/><path d="m158.05,130.46v3.78h-1.13v-9.29h2.9c1.8,0,3.25.79,3.25,2.77,0,.62-.12,1.12-.36,1.48-.8,1.2-2.39,1.27-3.7,1.27-.16,0-.32,0-.49,0-.16,0-.32,0-.47,0Zm0-.9h1.85c1.3,0,2.04-.55,2.04-1.9s-.79-1.81-2.04-1.81h-1.85v3.71Z"/><path d="m165.76,123.94v10.3h-1.09v-9.81l1.09-.48Z"/><path d="m169.66,134.36c-1.23,0-2.26-.67-2.26-2,0-2.16,2.86-2.11,4.38-2.11,0-1.2-.23-2.03-1.6-2.03-.76,0-1.46.46-1.7,1.18l-.92-.4c.5-1.12,1.49-1.68,2.72-1.68,1.49,0,2.59.91,2.59,2.46v4.46h-1.08v-.86c-.5.66-1.31.97-2.12.97Zm.1-.86c.96,0,2.01-.57,2.01-1.64v-.85h-.94c-.9,0-2.37.16-2.37,1.34,0,.83.51,1.14,1.29,1.14Z"/><path d="m175.51,126.01c-.4,0-.71-.31-.71-.71s.31-.71.71-.71.72.31.72.71-.31.71-.72.71Zm.56,1.43v6.8h-1.08v-6.8h1.08Z"/><path d="m179.34,130.12v4.12h-1.08v-6.8h1.08v1.08c.42-.84,1.28-1.2,2.18-1.2,1.74,0,2.52,1.19,2.52,2.81v4.11h-1.08v-4.19c0-1.14-.57-1.79-1.73-1.79s-1.9.71-1.9,1.86Z"/><path d="m191.79,125.87v8.37h-1.13v-8.37h-2.7v-.92h6.54v.92h-2.7Z"/><path d="m198.24,134.36c-2.07,0-3.29-1.57-3.29-3.55s1.21-3.48,3.19-3.48c2.24,0,3.05,1.64,3.05,3.65v.08h-5.12c0,1.37.73,2.41,2.18,2.41.8,0,1.48-.49,1.83-1.2l.99.43c-.62,1.11-1.57,1.66-2.83,1.66Zm-2.13-4.17h3.98c-.05-1.21-.7-1.96-1.95-1.96-1.16,0-1.91.88-2.03,1.96Z"/><path d="m205.02,131.5l-1.87,2.74h-1.16l2.43-3.5-2.28-3.3h1.26l1.66,2.47,1.65-2.47h1.17l-2.25,3.22,2.48,3.57h-1.27l-1.83-2.74Z"/><path d="m211.64,134.33c-1.18,0-1.83-.6-1.83-1.79v-4.19h-.98v-.91h.98v-1.27l1.08-.47v1.74h1.59v.91h-1.59v4.08c0,.59.2.99.84.99.27,0,.55-.04.83-.14v.91c-.31.1-.62.14-.92.14Z"/><path d="m409.04,134.36c-2.89,0-4.45-2.06-4.45-4.81,0-2.55,1.7-4.74,4.37-4.74,1.67,0,3.25,1.01,3.83,2.59l-.92.4c-.48-1.26-1.53-2.09-2.9-2.09-2.24,0-3.21,1.93-3.21,3.94s1.1,3.8,3.3,3.8c1.32,0,2.52-1.01,2.96-2.22l.86.38c-.62,1.59-2.13,2.77-3.85,2.77Z"/><path d="m415.05,126.01c-.4,0-.71-.31-.71-.71s.31-.71.71-.71.72.31.72.71-.31.71-.72.71Zm.56,1.43v6.8h-1.08v-6.8h1.08Z"/><path d="m418.89,133.12v3.48h-1.08v-9.17h1.08v1.14c.44-.79,1.57-1.26,2.43-1.26,2.07,0,3.09,1.59,3.09,3.52s-1.09,3.51-3.09,3.51c-.96,0-1.92-.4-2.43-1.23Zm2.26.34c1.62,0,2.14-1.23,2.14-2.67,0-1.33-.7-2.57-2.16-2.57-1.61,0-2.29,1.22-2.29,2.68s.79,2.56,2.3,2.56Z"/><path d="m427.16,130.12v4.12h-1.08v-10.05h1.08v4.33c.41-.84,1.24-1.2,2.15-1.2,1.7,0,2.56,1.18,2.56,2.81v4.11h-1.08v-4.19c0-1.16-.6-1.79-1.77-1.79s-1.86.71-1.86,1.86Z"/><path d="m436.75,134.36c-2.07,0-3.29-1.57-3.29-3.55s1.21-3.48,3.19-3.48c2.24,0,3.05,1.64,3.05,3.65v.08h-5.12c0,1.37.73,2.41,2.18,2.41.8,0,1.48-.49,1.83-1.2l.99.43c-.62,1.11-1.57,1.66-2.83,1.66Zm-2.13-4.17h3.98c-.05-1.21-.7-1.96-1.95-1.96-1.16,0-1.91.88-2.03,1.96Z"/><path d="m442.41,130.51v3.73h-1.08v-6.8h1.08v1.22c.5-.92,1.2-1.31,2.24-1.34v1.01c-1.56.07-2.24.66-2.24,2.17Z"/><path d="m451.83,125.87v8.37h-1.13v-8.37h-2.7v-.92h6.54v.92h-2.7Z"/><path d="m458.29,134.36c-2.07,0-3.29-1.57-3.29-3.55s1.21-3.48,3.19-3.48c2.24,0,3.05,1.64,3.05,3.65v.08h-5.12c0,1.37.73,2.41,2.18,2.41.8,0,1.48-.49,1.83-1.2l.99.43c-.62,1.11-1.57,1.66-2.83,1.66Zm-2.13-4.17h3.98c-.05-1.21-.7-1.96-1.95-1.96-1.16,0-1.91.88-2.03,1.96Z"/><path d="m465.07,131.5l-1.87,2.74h-1.16l2.43-3.5-2.28-3.3h1.26l1.66,2.47,1.65-2.47h1.17l-2.25,3.22,2.48,3.57h-1.27l-1.83-2.74Z"/><path d="m471.68,134.33c-1.18,0-1.83-.6-1.83-1.79v-4.19h-.98v-.91h.98v-1.27l1.08-.47v1.74h1.59v.91h-1.59v4.08c0,.59.2.99.84.99.27,0,.55-.04.83-.14v.91c-.31.1-.62.14-.92.14Z"/><path d="m671.05,130.46v3.78h-1.13v-9.29h2.9c1.8,0,3.25.79,3.25,2.77,0,.62-.12,1.12-.36,1.48-.8,1.2-2.39,1.27-3.7,1.27-.16,0-.32,0-.49,0-.16,0-.32,0-.47,0Zm0-.9h1.85c1.3,0,2.04-.55,2.04-1.9s-.79-1.81-2.04-1.81h-1.85v3.71Z"/><path d="m678.76,123.94v10.3h-1.09v-9.81l1.09-.48Z"/><path d="m682.66,134.36c-1.23,0-2.26-.67-2.26-2,0-2.16,2.86-2.11,4.38-2.11,0-1.2-.23-2.03-1.6-2.03-.76,0-1.46.46-1.7,1.18l-.92-.4c.5-1.12,1.49-1.68,2.72-1.68,1.49,0,2.59.91,2.59,2.46v4.46h-1.08v-.86c-.5.66-1.31.97-2.12.97Zm.1-.86c.96,0,2.01-.57,2.01-1.64v-.85h-.94c-.9,0-2.37.16-2.37,1.34,0,.83.51,1.14,1.29,1.14Z"/><path d="m688.51,126.01c-.4,0-.71-.31-.71-.71s.31-.71.71-.71.72.31.72.71-.31.71-.72.71Zm.56,1.43v6.8h-1.08v-6.8h1.08Z"/><path d="m692.34,130.12v4.12h-1.08v-6.8h1.08v1.08c.42-.84,1.28-1.2,2.18-1.2,1.74,0,2.52,1.19,2.52,2.81v4.11h-1.08v-4.19c0-1.14-.57-1.79-1.73-1.79s-1.9.71-1.9,1.86Z"/><path d="m704.79,125.87v8.37h-1.13v-8.37h-2.7v-.92h6.54v.92h-2.7Z"/><path d="m711.24,134.36c-2.07,0-3.29-1.57-3.29-3.55s1.21-3.48,3.19-3.48c2.24,0,3.05,1.64,3.05,3.65v.08h-5.12c0,1.37.73,2.41,2.18,2.41.8,0,1.48-.49,1.83-1.2l.99.43c-.62,1.11-1.57,1.66-2.83,1.66Zm-2.13-4.17h3.98c-.05-1.21-.7-1.96-1.95-1.96-1.16,0-1.91.88-2.03,1.96Z"/><path d="m718.02,131.5l-1.87,2.74h-1.16l2.43-3.5-2.28-3.3h1.26l1.66,2.47,1.65-2.47h1.17l-2.25,3.22,2.48,3.57h-1.27l-1.83-2.74Z"/><path d="m724.64,134.33c-1.18,0-1.83-.6-1.83-1.79v-4.19h-.98v-.91h.98v-1.27l1.08-.47v1.74h1.59v.91h-1.59v4.08c0,.59.2.99.84.99.27,0,.55-.04.83-.14v.91c-.31.1-.62.14-.92.14Z"/><path class="cls-8" d="m353.89,411.88h-4c-.41,0-.75-.34-.75-.75s.34-.75.75-.75h4c.41,0,.75.34.75.75s-.34.75-.75.75Zm-8,0h-4c-.41,0-.75-.34-.75-.75s.34-.75.75-.75h4c.41,0,.75.34.75.75s-.34.75-.75.75Zm-8,0h-4c-.41,0-.75-.34-.75-.75s.34-.75.75-.75h4c.41,0,.75.34.75.75s-.34.75-.75.75Zm-8,0h-4c-.41,0-.75-.34-.75-.75s.34-.75.75-.75h4c.41,0,.75.34.75.75s-.34.75-.75.75Zm-8,0h-4c-.41,0-.75-.34-.75-.75s.34-.75.75-.75h4c.41,0,.75.34.75.75s-.34.75-.75.75Zm-8,0h-4c-.41,0-.75-.34-.75-.75s.34-.75.75-.75h4c.41,0,.75.34.75.75s-.34.75-.75.75Zm-8,0h-4c-.41,0-.75-.34-.75-.75s.34-.75.75-.75h4c.41,0,.75.34.75.75s-.34.75-.75.75Zm-8,0h-4c-.41,0-.75-.34-.75-.75s.34-.75.75-.75h4c.41,0,.75.34.75.75s-.34.75-.75.75Zm-8,0h-4c-.41,0-.75-.34-.75-.75s.34-.75.75-.75h4c.41,0,.75.34.75.75s-.34.75-.75.75Zm-8,0h-4c-.41,0-.75-.34-.75-.75s.34-.75.75-.75h4c.41,0,.75.34.75.75s-.34.75-.75.75Zm-8,0h-4c-.41,0-.75-.34-.75-.75s.34-.75.75-.75h4c.41,0,.75.34.75.75s-.34.75-.75.75Zm-8,0h-4c-.41,0-.75-.34-.75-.75s.34-.75.75-.75h4c.41,0,.75.34.75.75s-.34.75-.75.75Zm-8,0h-4c-.41,0-.75-.34-.75-.75s.34-.75.75-.75h4c.41,0,.75.34.75.75s-.34.75-.75.75Zm-8,0h-4c-.41,0-.75-.34-.75-.75s.34-.75.75-.75h4c.41,0,.75.34.75.75s-.34.75-.75.75Zm-8,0h-4c-.41,0-.75-.34-.75-.75s.34-.75.75-.75h4c.41,0,.75.34.75.75s-.34.75-.75.75Zm-8,0h-4c-.41,0-.75-.34-.75-.75s.34-.75.75-.75h4c.41,0,.75.34.75.75s-.34.75-.75.75Zm-8,0h-4c-.41,0-.75-.34-.75-.75s.34-.75.75-.75h4c.41,0,.75.34.75.75s-.34.75-.75.75Zm-8,0h-4c-.41,0-.75-.34-.75-.75s.34-.75.75-.75h4c.41,0,.75.34.75.75s-.34.75-.75.75Zm-8,0h-4c-.41,0-.75-.34-.75-.75s.34-.75.75-.75h4c.41,0,.75.34.75.75s-.34.75-.75.75Zm-8,0h-4c-.41,0-.75-.34-.75-.75s.34-.75.75-.75h4c.41,0,.75.34.75.75s-.34.75-.75.75Zm-8,0h-4c-.41,0-.75-.34-.75-.75s.34-.75.75-.75h4c.41,0,.75.34.75.75s-.34.75-.75.75Zm-8,0h-4c-.41,0-.75-.34-.75-.75s.34-.75.75-.75h4c.41,0,.75.34.75.75s-.34.75-.75.75Zm-8,0h-4c-.41,0-.75-.34-.75-.75s.34-.75.75-.75h4c.41,0,.75.34.75.75s-.34.75-.75.75Zm-8,0h-4c-.41,0-.75-.34-.75-.75s.34-.75.75-.75h4c.41,0,.75.34.75.75s-.34.75-.75.75Zm-8,0h-4c-.41,0-.75-.34-.75-.75s.34-.75.75-.75h4c.41,0,.75.34.75.75s-.34.75-.75.75Zm-8,0h-4c-.41,0-.75-.34-.75-.75s.34-.75.75-.75h4c.41,0,.75.34.75.75s-.34.75-.75.75Zm-8,0h-4c-.41,0-.75-.34-.75-.75s.34-.75.75-.75h4c.41,0,.75.34.75.75s-.34.75-.75.75Zm-8,0h-4c-.41,0-.75-.34-.75-.75s.34-.75.75-.75h4c.41,0,.75.34.75.75s-.34.75-.75.75Zm-8,0h-4c-.41,0-.75-.34-.75-.75s.34-.75.75-.75h4c.41,0,.75.34.75.75s-.34.75-.75.75Zm-8,0h-4c-.41,0-.75-.34-.75-.75s.34-.75.75-.75h4c.41,0,.75.34.75.75s-.34.75-.75.75Zm-8,0h-4c-.41,0-.75-.34-.75-.75s.34-.75.75-.75h4c.41,0,.75.34.75.75s-.34.75-.75.75Zm-8,0h-4c-.41,0-.75-.34-.75-.75s.34-.75.75-.75h4c.41,0,.75.34.75.75s-.34.75-.75.75Zm-8.01,0h-4c-.41,0-.75-.34-.75-.75s.34-.75.75-.75h4c.41,0,.75.34.75.75s-.34.75-.75.75Zm-8,0h-4c-.41,0-.75-.34-.75-.75s.34-.75.75-.75h4c.41,0,.75.34.75.75s-.34.75-.75.75Zm-8.01,0h-4c-.41,0-.75-.34-.75-.75s.34-.75.75-.75h4c.41,0,.75.34.75.75s-.34.75-.75.75Zm-8.01,0h-4c-.41,0-.75-.34-.75-.75s.34-.75.75-.75h4c.41,0,.75.34.75.75s-.34.75-.75.75Zm-8.01,0h-4.01c-.41,0-.75-.34-.75-.75s.34-.75.75-.75h4.01c.41,0,.75.34.75.75s-.34.75-.75.75Zm-8.02,0h-2.29c-.41,0-.75-.34-.75-.75v-1.72c0-.41.34-.75.75-.75s.75.34.75.75v.97h1.54c.41,0,.75.34.75.75s-.34.75-.75.75Zm-2.29-5.72c-.41,0-.75-.34-.75-.75v-4c0-.41.34-.75.75-.75s.75.34.75.75v4c0,.41-.34.75-.75.75Zm0-8c-.41,0-.75-.34-.75-.75v-4c0-.41.34-.75.75-.75s.75.34.75.75v4c0,.41-.34.75-.75.75Zm0-8c-.41,0-.75-.34-.75-.75v-4c0-.41.34-.75.75-.75s.75.34.75.75v4c0,.41-.34.75-.75.75Zm0-8c-.41,0-.75-.34-.75-.75v-4c0-.41.34-.75.75-.75s.75.34.75.75v4c0,.41-.34.75-.75.75Zm0-8c-.41,0-.75-.34-.75-.75v-4c0-.41.34-.75.75-.75s.75.34.75.75v4c0,.41-.34.75-.75.75Zm0-8c-.41,0-.75-.34-.75-.75v-4c0-.41.34-.75.75-.75s.75.34.75.75v4c0,.41-.34.75-.75.75Zm0-8c-.41,0-.75-.34-.75-.75v-4c0-.41.34-.75.75-.75s.75.34.75.75v4c0,.41-.34.75-.75.75Zm0-8c-.41,0-.75-.34-.75-.75v-4c0-.41.34-.75.75-.75s.75.34.75.75v4c0,.41-.34.75-.75.75Zm0-8c-.41,0-.75-.34-.75-.75v-4c0-.41.34-.75.75-.75s.75.34.75.75v4c0,.41-.34.75-.75.75Zm0-8c-.41,0-.75-.34-.75-.75v-4c0-.41.34-.75.75-.75s.75.34.75.75v4c0,.41-.34.75-.75.75Zm0-8c-.41,0-.75-.34-.75-.75v-4c0-.41.34-.75.75-.75s.75.34.75.75v4c0,.41-.34.75-.75.75Zm0-8c-.41,0-.75-.34-.75-.75v-4c0-.41.34-.75.75-.75s.75.34.75.75v4c0,.41-.34.75-.75.75Zm0-8c-.41,0-.75-.34-.75-.75v-4c0-.41.34-.75.75-.75s.75.34.75.75v4c0,.41-.34.75-.75.75Zm0-8c-.41,0-.75-.34-.75-.75v-4c0-.41.34-.75.75-.75s.75.34.75.75v4c0,.41-.34.75-.75.75Zm0-8c-.41,0-.75-.34-.75-.75v-4c0-.41.34-.75.75-.75s.75.34.75.75v4c0,.41-.34.75-.75.75Zm0-8c-.41,0-.75-.34-.75-.75v-4c0-.41.34-.75.75-.75s.75.34.75.75v4c0,.41-.34.75-.75.75Zm0-8c-.41,0-.75-.34-.75-.75v-4c0-.41.34-.75.75-.75s.75.34.75.75v4c0,.41-.34.75-.75.75Zm0-8c-.41,0-.75-.34-.75-.75v-4c0-.41.34-.75.75-.75s.75.34.75.75v4c0,.41-.34.75-.75.75Zm0-8c-.41,0-.75-.34-.75-.75v-4c0-.41.34-.75.75-.75s.75.34.75.75v4c0,.41-.34.75-.75.75Zm0-8c-.41,0-.75-.34-.75-.75v-4c0-.41.34-.75.75-.75s.75.34.75.75v4c0,.41-.34.75-.75.75Zm0-8c-.41,0-.75-.34-.75-.75v-4c0-.41.34-.75.75-.75s.75.34.75.75v4c0,.41-.34.75-.75.75Zm0-8c-.41,0-.75-.34-.75-.75v-4c0-.41.34-.75.75-.75s.75.34.75.75v4c0,.41-.34.75-.75.75Zm0-8c-.41,0-.75-.34-.75-.75v-4c0-.41.34-.75.75-.75s.75.34.75.75v4c0,.41-.34.75-.75.75Zm0-8c-.41,0-.75-.34-.75-.75v-4c0-.41.34-.75.75-.75s.75.34.75.75v4c0,.41-.34.75-.75.75Zm0-8c-.41,0-.75-.34-.75-.75v-4c0-.41.34-.75.75-.75s.75.34.75.75v4c0,.41-.34.75-.75.75Z"/><polygon class="cls-8" points="61.63 213.61 60.54 214.63 55.5 209.21 50.47 214.63 49.37 213.61 55.5 207.01 61.63 213.61"/><path d="m370.75,286.16h-2.48v-8.58h2.51c2.73,0,4.34,1.57,4.34,4.32s-1.76,4.26-4.37,4.26Zm-1.44-.85h1.42c1.12,0,1.95-.31,2.49-.94.55-.63.82-1.49.82-2.57,0-2.23-1.09-3.37-3.32-3.37h-1.4v6.88Z"/><path d="m377.28,278.57c-.37,0-.66-.29-.66-.66s.29-.66.66-.66.66.29.66.66-.29.66-.66.66Zm.52,1.32v6.27h-1v-6.27h1Z"/><path d="m381.03,280.73v5.43h-1v-5.43h-.9v-.84h.9c0-.37,0-.73.01-1.1,0-.37.07-.69.19-.98.29-.74.93-.96,1.67-.96.29,0,.58.02.86.12l-.32.75c-.17-.03-.33-.05-.5-.05-.34,0-.58.1-.71.31-.13.21-.2.46-.2.77v1.13h1.54v.84h-1.54Z"/><path d="m385.29,280.73v5.43h-1v-5.43h-.9v-.84h.9c0-.37,0-.73.01-1.1,0-.37.07-.69.19-.98.29-.74.93-.96,1.67-.96.29,0,.58.02.86.12l-.32.75c-.17-.03-.33-.05-.5-.05-.34,0-.58.1-.71.31-.13.21-.2.46-.2.77v1.13h1.54v.84h-1.54Z"/><path d="m390.76,286.27c-1.91,0-3.03-1.45-3.03-3.27s1.12-3.21,2.94-3.21c2.07,0,2.82,1.52,2.82,3.37v.07h-4.73c0,1.26.67,2.22,2.01,2.22.74,0,1.36-.46,1.69-1.1l.91.4c-.58,1.03-1.45,1.54-2.61,1.54Zm-1.97-3.85h3.67c-.05-1.12-.65-1.81-1.8-1.81-1.07,0-1.76.82-1.87,1.81Z"/><path d="m395.98,282.72v3.44h-1v-6.27h1v1.13c.46-.84,1.1-1.21,2.06-1.24v.94c-1.44.07-2.06.61-2.06,2Z"/><path d="m401.96,286.27c-1.91,0-3.03-1.45-3.03-3.27s1.12-3.21,2.94-3.21c2.07,0,2.82,1.52,2.82,3.37v.07h-4.73c0,1.26.67,2.22,2.01,2.22.74,0,1.36-.46,1.69-1.1l.91.4c-.58,1.03-1.45,1.54-2.61,1.54Zm-1.97-3.85h3.67c-.05-1.12-.65-1.81-1.8-1.81-1.07,0-1.76.82-1.87,1.81Z"/><path d="m407.18,282.36v3.8h-1v-6.27h1v1c.39-.78,1.18-1.1,2.01-1.1,1.6,0,2.33,1.1,2.33,2.59v3.79h-1v-3.86c0-1.05-.52-1.65-1.59-1.65s-1.75.65-1.75,1.71Z"/><path d="m415.37,286.25c-1.08,0-1.69-.55-1.69-1.66v-3.86h-.9v-.84h.9v-1.18l1-.43v1.61h1.46v.84h-1.46v3.77c0,.55.19.91.78.91.25,0,.5-.04.77-.13v.84c-.29.09-.57.13-.85.13Z"/><path d="m421.03,282.91v3.25h-1v-9.27h1v5.89l2.72-2.89h1.16l-2.81,2.91,3.03,3.36h-1.21l-2.9-3.25Z"/><path d="m428.78,286.27c-1.91,0-3.03-1.45-3.03-3.27s1.12-3.21,2.94-3.21c2.07,0,2.82,1.52,2.82,3.37v.07h-4.73c0,1.26.67,2.22,2.01,2.22.74,0,1.36-.46,1.69-1.1l.91.4c-.58,1.03-1.45,1.54-2.61,1.54Zm-1.97-3.85h3.67c-.05-1.12-.65-1.81-1.8-1.81-1.07,0-1.76.82-1.87,1.81Z"/><path d="m437.97,279.89l-3.47,8.46h-1.01l1.19-2.83-2.42-5.62h1.07l1.88,4.5,1.74-4.5h1.02Z"/><path d="m441.13,286.27c-1.13,0-2.01-.56-2.37-1.63l.77-.34c.23.73.84,1.14,1.59,1.14.67,0,1.4-.23,1.4-1.04,0-.27-.09-.47-.27-.61-.4-.31-1.06-.44-1.55-.53-.62-.12-1.19-.34-1.55-.79-.18-.22-.27-.53-.27-.92,0-1.12,1.16-1.76,2.16-1.76s1.8.55,2.27,1.43l-.77.34c-.29-.61-.86-.94-1.51-.94-.55,0-1.22.27-1.22.9,0,.26.09.46.27.59.41.3,1.07.43,1.57.51.64.11,1.21.34,1.57.77.18.22.27.53.27.93,0,1.35-1.15,1.96-2.34,1.96Z"/><path d="m448.86,286.27c-1.14,0-2.09-.62-2.09-1.85,0-2,2.64-1.94,4.04-1.94,0-1.11-.22-1.87-1.47-1.87-.7,0-1.34.43-1.57,1.09l-.85-.37c.46-1.04,1.37-1.55,2.51-1.55,1.37,0,2.39.84,2.39,2.27v4.11h-1v-.79c-.46.61-1.21.9-1.96.9Zm.1-.79c.88,0,1.86-.52,1.86-1.51v-.78h-.86c-.83,0-2.18.14-2.18,1.24,0,.77.47,1.06,1.19,1.06Z"/><path d="m454.75,282.72v3.44h-1v-6.27h1v1.13c.46-.84,1.1-1.21,2.06-1.24v.94c-1.44.07-2.06.61-2.06,2Z"/><path d="m460.73,286.27c-1.91,0-3.03-1.45-3.03-3.27s1.12-3.21,2.94-3.21c2.07,0,2.82,1.52,2.82,3.37v.07h-4.73c0,1.26.67,2.22,2.01,2.22.74,0,1.36-.46,1.69-1.1l.91.4c-.58,1.03-1.45,1.54-2.61,1.54Zm-1.97-3.85h3.67c-.05-1.12-.65-1.81-1.8-1.81-1.07,0-1.76.82-1.87,1.81Z"/><path d="m469.58,286.27c-1.53,0-2.36-.9-2.36-2.41v-3.97h1v3.92c0,1.06.58,1.59,1.63,1.59s1.67-.69,1.67-1.71v-3.8h1v6.27h-1v-1c-.37.77-1.1,1.1-1.93,1.1Z"/><path d="m476.37,286.27c-1.13,0-2.01-.56-2.37-1.63l.77-.34c.23.73.84,1.14,1.59,1.14.67,0,1.4-.23,1.4-1.04,0-.27-.09-.47-.27-.61-.4-.31-1.06-.44-1.55-.53-.62-.12-1.19-.34-1.55-.79-.18-.22-.27-.53-.27-.92,0-1.12,1.16-1.76,2.16-1.76s1.8.55,2.27,1.43l-.77.34c-.29-.61-.86-.94-1.51-.94-.55,0-1.22.27-1.22.9,0,.26.09.46.27.59.41.3,1.07.43,1.57.51.64.11,1.21.34,1.57.77.18.22.27.53.27.93,0,1.35-1.15,1.96-2.34,1.96Z"/><path d="m482.78,286.27c-1.91,0-3.03-1.45-3.03-3.27s1.12-3.21,2.94-3.21c2.07,0,2.82,1.52,2.82,3.37v.07h-4.73c0,1.26.67,2.22,2.01,2.22.74,0,1.36-.46,1.69-1.1l.91.4c-.58,1.03-1.45,1.54-2.61,1.54Zm-1.97-3.85h3.67c-.05-1.12-.65-1.81-1.8-1.81-1.07,0-1.76.82-1.87,1.81Z"/><path d="m489.37,286.27c-1.92,0-2.83-1.45-2.83-3.21s1.07-3.27,2.93-3.27c.88,0,1.7.35,2.17,1.12v-4.01h1v9.27h-1v-1.08c-.41.7-1.45,1.19-2.27,1.19Zm.14-.83c1.48,0,2.16-1.1,2.16-2.47s-.64-2.36-2.08-2.36c-1.52,0-2.03,1.16-2.03,2.49,0,1.23.63,2.34,1.94,2.34Z"/><path d="m498.86,286.25c-1.08,0-1.69-.55-1.69-1.66v-3.86h-.9v-.84h.9v-1.18l1-.43v1.61h1.46v.84h-1.46v3.77c0,.55.19.91.78.91.25,0,.5-.04.77-.13v.84c-.29.09-.57.13-.85.13Z"/><path d="m503.84,286.27c-1.91,0-3.11-1.43-3.11-3.29s1.28-3.2,3.12-3.2,3.12,1.43,3.12,3.29-1.33,3.2-3.13,3.2Zm.01-.83c1.43,0,2.09-1.13,2.09-2.45s-.71-2.39-2.09-2.39c-1.47,0-2.09,1.14-2.09,2.47s.71,2.36,2.09,2.36Z"/><path d="m359,303.27c-1.91,0-3.03-1.45-3.03-3.27s1.12-3.21,2.94-3.21c2.07,0,2.82,1.52,2.82,3.37v.07h-4.73c0,1.26.67,2.22,2.01,2.22.74,0,1.36-.46,1.69-1.1l.91.4c-.58,1.03-1.45,1.54-2.61,1.54Zm-1.97-3.85h3.67c-.05-1.12-.65-1.81-1.8-1.81-1.07,0-1.76.82-1.87,1.81Z"/><path d="m364.22,299.36v3.8h-1v-6.27h1v1c.39-.78,1.18-1.1,2.01-1.1,1.6,0,2.33,1.1,2.33,2.59v3.79h-1v-3.86c0-1.05-.52-1.65-1.59-1.65s-1.75.65-1.75,1.71Z"/><path d="m373.05,303.27c-1.93,0-3.01-1.44-3.01-3.27s1.24-3.21,3.07-3.21c1.27,0,2.19.58,2.75,1.74l-.91.4c-.28-.77-1.04-1.31-1.86-1.31-1.38,0-2.01,1.25-2.01,2.48s.66,2.35,2.05,2.35c.92,0,1.63-.62,1.91-1.47l.86.37c-.48,1.25-1.51,1.93-2.84,1.93Z"/><path d="m378.38,299.72v3.44h-1v-6.27h1v1.13c.46-.84,1.1-1.21,2.06-1.24v.94c-1.44.07-2.06.61-2.06,2Z"/><path d="m386.92,296.89l-3.47,8.46h-1.01l1.19-2.83-2.42-5.62h1.07l1.88,4.5,1.74-4.5h1.02Z"/><path d="m389.21,302.13v3.21h-1v-8.46h1v1.06c.41-.73,1.45-1.16,2.24-1.16,1.91,0,2.85,1.47,2.85,3.25s-1,3.24-2.85,3.24c-.88,0-1.78-.37-2.24-1.14Zm2.09.31c1.5,0,1.98-1.13,1.98-2.46,0-1.23-.65-2.37-1.99-2.37-1.48,0-2.11,1.13-2.11,2.47s.73,2.36,2.12,2.36Z"/><path d="m397.76,303.25c-1.08,0-1.69-.55-1.69-1.66v-3.86h-.9v-.84h.9v-1.18l1-.43v1.61h1.46v.84h-1.46v3.77c0,.55.19.91.78.91.25,0,.5-.04.77-.13v.84c-.29.09-.57.13-.85.13Z"/><path d="m403.98,303.27c-1.14,0-2.09-.62-2.09-1.85,0-2,2.64-1.94,4.04-1.94,0-1.11-.22-1.87-1.47-1.87-.7,0-1.34.43-1.57,1.09l-.85-.37c.46-1.04,1.37-1.55,2.51-1.55,1.37,0,2.39.84,2.39,2.27v4.11h-1v-.79c-.46.61-1.21.9-1.96.9Zm.1-.79c.88,0,1.86-.52,1.86-1.51v-.78h-.86c-.83,0-2.18.14-2.18,1.24,0,.77.47,1.06,1.19,1.06Z"/><path d="m409.88,299.36v3.8h-1v-6.27h1v1c.39-.78,1.18-1.1,2.01-1.1,1.6,0,2.33,1.1,2.33,2.59v3.79h-1v-3.86c0-1.05-.52-1.65-1.59-1.65s-1.75.65-1.75,1.71Z"/><path d="m418.53,303.27c-1.92,0-2.83-1.45-2.83-3.21s1.07-3.27,2.93-3.27c.88,0,1.7.35,2.17,1.12v-4.01h1v9.27h-1v-1.08c-.41.7-1.45,1.19-2.27,1.19Zm.14-.83c1.48,0,2.16-1.1,2.16-2.47s-.64-2.36-2.08-2.36c-1.52,0-2.03,1.16-2.03,2.49,0,1.23.63,2.34,1.94,2.34Z"/><path d="m428.48,303.27c-1.92,0-2.83-1.45-2.83-3.21s1.07-3.27,2.93-3.27c.88,0,1.7.35,2.17,1.12v-4.01h1v9.27h-1v-1.08c-.41.7-1.45,1.19-2.27,1.19Zm.14-.83c1.48,0,2.16-1.1,2.16-2.47s-.64-2.36-2.08-2.36c-1.52,0-2.03,1.16-2.03,2.49,0,1.23.63,2.34,1.94,2.34Z"/><path d="m436.31,303.27c-1.91,0-3.03-1.45-3.03-3.27s1.12-3.21,2.94-3.21c2.07,0,2.82,1.52,2.82,3.37v.07h-4.73c0,1.26.67,2.22,2.01,2.22.74,0,1.36-.46,1.69-1.1l.91.4c-.58,1.03-1.45,1.54-2.61,1.54Zm-1.97-3.85h3.67c-.05-1.12-.65-1.81-1.8-1.81-1.07,0-1.76.82-1.87,1.81Z"/><path d="m443.08,303.27c-1.93,0-3.01-1.44-3.01-3.27s1.24-3.21,3.07-3.21c1.27,0,2.19.58,2.75,1.74l-.91.4c-.28-.77-1.04-1.31-1.86-1.31-1.38,0-2.01,1.25-2.01,2.48s.66,2.35,2.05,2.35c.92,0,1.63-.62,1.91-1.47l.86.37c-.48,1.25-1.51,1.93-2.84,1.93Z"/><path d="m448.41,299.72v3.44h-1v-6.27h1v1.13c.46-.84,1.1-1.21,2.06-1.24v.94c-1.44.07-2.06.61-2.06,2Z"/><path d="m456.94,296.89l-3.47,8.46h-1.01l1.19-2.83-2.42-5.62h1.07l1.88,4.5,1.74-4.5h1.02Z"/><path d="m459.24,302.13v3.21h-1v-8.46h1v1.06c.41-.73,1.45-1.16,2.24-1.16,1.91,0,2.85,1.47,2.85,3.25s-1,3.24-2.85,3.24c-.88,0-1.78-.37-2.24-1.14Zm2.09.31c1.5,0,1.98-1.13,1.98-2.46,0-1.23-.65-2.37-1.99-2.37-1.48,0-2.11,1.13-2.11,2.47s.73,2.36,2.12,2.36Z"/><path d="m467.78,303.25c-1.08,0-1.69-.55-1.69-1.66v-3.86h-.9v-.84h.9v-1.18l1-.43v1.61h1.46v.84h-1.46v3.77c0,.55.19.91.78.91.25,0,.5-.04.77-.13v.84c-.29.09-.57.13-.85.13Z"/><path d="m473.43,299.32v3.84h-1v-6.27h1v.96c.34-.72.95-1.07,1.75-1.07s1.7.38,2.01,1.18c.4-.79,1.16-1.18,2.03-1.18,1.49,0,2.29,1.06,2.29,2.5v3.89h-1v-3.96c0-1.01-.5-1.56-1.51-1.56s-1.54.75-1.54,1.68v3.84h-1v-3.96c0-1.01-.5-1.56-1.51-1.56s-1.54.77-1.54,1.68Z"/><path d="m486.03,303.27c-1.91,0-3.03-1.45-3.03-3.27s1.12-3.21,2.94-3.21c2.07,0,2.82,1.52,2.82,3.37v.07h-4.73c0,1.26.67,2.22,2.01,2.22.74,0,1.36-.46,1.69-1.1l.91.4c-.58,1.03-1.45,1.54-2.61,1.54Zm-1.97-3.85h3.67c-.05-1.12-.65-1.81-1.8-1.81-1.07,0-1.76.82-1.87,1.81Z"/><path d="m492.15,303.27c-1.13,0-2.01-.56-2.37-1.63l.77-.34c.23.73.84,1.14,1.59,1.14.67,0,1.4-.23,1.4-1.04,0-.27-.09-.47-.27-.61-.4-.31-1.06-.44-1.55-.53-.62-.12-1.19-.34-1.55-.79-.18-.22-.27-.53-.27-.92,0-1.12,1.16-1.76,2.16-1.76s1.8.55,2.27,1.43l-.77.34c-.29-.61-.86-.94-1.51-.94-.55,0-1.22.27-1.22.9,0,.26.09.46.27.59.41.3,1.07.43,1.57.51.64.11,1.21.34,1.57.77.18.22.27.53.27.93,0,1.35-1.15,1.96-2.34,1.96Z"/><path d="m497.85,303.27c-1.13,0-2.01-.56-2.37-1.63l.77-.34c.23.73.84,1.14,1.59,1.14.67,0,1.4-.23,1.4-1.04,0-.27-.09-.47-.27-.61-.4-.31-1.06-.44-1.55-.53-.62-.12-1.19-.34-1.55-.79-.18-.22-.27-.53-.27-.92,0-1.12,1.16-1.76,2.16-1.76s1.8.55,2.27,1.43l-.77.34c-.29-.61-.86-.94-1.51-.94-.55,0-1.22.27-1.22.9,0,.26.09.46.27.59.41.3,1.07.43,1.57.51.64.11,1.21.34,1.57.77.18.22.27.53.27.93,0,1.35-1.15,1.96-2.34,1.96Z"/><path d="m503.26,303.27c-1.14,0-2.09-.62-2.09-1.85,0-2,2.64-1.94,4.04-1.94,0-1.11-.22-1.87-1.47-1.87-.7,0-1.34.43-1.57,1.09l-.85-.37c.46-1.04,1.37-1.55,2.51-1.55,1.37,0,2.39.84,2.39,2.27v4.11h-1v-.79c-.46.61-1.21.9-1.96.9Zm.1-.79c.88,0,1.86-.52,1.86-1.51v-.78h-.86c-.83,0-2.18.14-2.18,1.24,0,.77.47,1.06,1.19,1.06Z"/><path d="m510.66,305.45c-1.19,0-2.3-.38-2.84-1.52l.79-.35c.35.77,1.24,1.03,2.04,1.03,1.22,0,2.13-.63,2.13-1.93v-.91c-.48.73-1.37,1.19-2.24,1.19-1.76,0-2.85-1.38-2.85-3.06s1.19-3.12,2.93-3.12c.86,0,1.71.37,2.17,1.12v-1.01h1v5.85c0,1.85-1.46,2.71-3.12,2.71Zm.05-3.32c1.35,0,2.11-1.03,2.11-2.3s-.74-2.22-2.05-2.22-2.05,1.08-2.05,2.34c0,1.15.8,2.18,1.99,2.18Z"/><path d="m518.35,303.27c-1.91,0-3.03-1.45-3.03-3.27s1.12-3.21,2.94-3.21c2.07,0,2.82,1.52,2.82,3.37v.07h-4.73c0,1.26.67,2.22,2.01,2.22.74,0,1.36-.46,1.69-1.1l.91.4c-.58,1.03-1.45,1.54-2.61,1.54Zm-1.97-3.85h3.67c-.05-1.12-.65-1.81-1.8-1.81-1.07,0-1.76.82-1.87,1.81Z"/></svg>